<svg width="20" height="20" viewBox="0 0 20 20" fill="none" xmlns="http://www.w3.org/2000/svg">
<path d="M18 18H14L7 11L5.5 7.5L6.5 6.5L18 18Z" fill="#72F6FF"/>
<path d="M18 2L11 9L9 7L14 2H18Z" fill="#72F6FF"/>
<path d="M8 5C8 5.59334 7.82405 6.17336 7.49441 6.66671C7.16477 7.16006 6.69623 7.54458 6.14805 7.77164C5.59987 7.9987 4.99667 8.05811 4.41473 7.94236C3.83279 7.8266 3.29824 7.54088 2.87868 7.12132C2.45912 6.70176 2.1734 6.16721 2.05765 5.58527C1.94189 5.00333 2.0013 4.40013 2.22836 3.85195C2.45543 3.30377 2.83994 2.83524 3.33329 2.50559C3.82664 2.17595 4.40666 2 5 2C5.79565 2 6.55871 2.31607 7.12132 2.87868C7.68393 3.44129 8 4.20435 8 5ZM5 3.5C4.70333 3.5 4.41332 3.58797 4.16665 3.7528C3.91997 3.91762 3.72771 4.15189 3.61418 4.42597C3.50065 4.70006 3.47095 5.00166 3.52882 5.29264C3.5867 5.58361 3.72956 5.85088 3.93934 6.06066C4.14912 6.27044 4.41639 6.4133 4.70737 6.47118C4.99834 6.52906 5.29994 6.49935 5.57403 6.38582C5.84812 6.27229 6.08238 6.08003 6.24721 5.83336C6.41203 5.58668 6.5 5.29667 6.5 5C6.5 4.60218 6.34197 4.22064 6.06066 3.93934C5.77936 3.65804 5.39783 3.5 5 3.5Z" fill="#72F6FF"/>
<path d="M5 18C4.40666 18 3.82664 17.8241 3.33329 17.4944C2.83994 17.1648 2.45543 16.6962 2.22836 16.1481C2.0013 15.5999 1.94189 14.9967 2.05765 14.4147C2.1734 13.8328 2.45912 13.2982 2.87868 12.8787C3.29824 12.4591 3.83279 12.1734 4.41473 12.0576C4.99667 11.9419 5.59987 12.0013 6.14805 12.2284C6.69623 12.4554 7.16477 12.8399 7.49441 13.3333C7.82405 13.8266 8 14.4067 8 15C8 15.7957 7.68393 16.5587 7.12132 17.1213C6.55871 17.6839 5.79565 18 5 18ZM5 13.5C4.70333 13.5 4.41332 13.588 4.16665 13.7528C3.91997 13.9176 3.72771 14.1519 3.61418 14.426C3.50065 14.7001 3.47095 15.0017 3.52882 15.2926C3.5867 15.5836 3.72956 15.8509 3.93934 16.0607C4.14912 16.2704 4.41639 16.4133 4.70737 16.4712C4.99834 16.5291 5.29994 16.4994 5.57403 16.3858C5.84812 16.2723 6.08238 16.08 6.24721 15.8334C6.41203 15.5867 6.5 15.2967 6.5 15C6.5 14.6022 6.34197 14.2206 6.06066 13.9393C5.77936 13.658 5.39783 13.5 5 13.5Z" fill="#72F6FF"/>
</svg>
