<svg width="20" height="20" viewBox="0 0 20 20" fill="none" xmlns="http://www.w3.org/2000/svg">
<path d="M12.0312 12.8418L9.5 10.3105V7H11V9.68945L13.0918 11.7812L12.0312 12.8418ZM10.25 2C8.75805 2.08743 7.31548 2.56648 6.0676 3.3889C4.81972 4.21132 3.81061 5.34806 3.14191 6.68463L3.5 4H2V9H7V7.5L3.98328 7.68768C5.31488 5.96759 7.85437 3.75 10.25 3.75C11.0568 3.75807 11.854 3.9271 12.5947 4.24719C13.3353 4.56727 14.0047 5.03197 14.5635 5.61405C15.1223 6.19612 15.5593 6.88388 15.8489 7.63701C16.1385 8.39014 16.2749 9.19349 16.25 10C16.2506 11.2362 15.8844 12.4447 15.1978 13.4726C14.5112 14.5006 13.5351 15.3018 12.393 15.7747C11.2509 16.2476 9.99416 16.3711 8.78185 16.1295C7.56954 15.8879 6.45616 15.292 5.58264 14.4174L4.34314 15.6569C5.46196 16.7757 6.88742 17.5376 8.43927 17.8463C9.99112 18.155 11.5997 17.9965 13.0615 17.391C14.5233 16.7855 15.7727 15.7602 16.6518 14.4446C17.5308 13.129 18 11.5823 18 10C18.0279 8.96284 17.8484 7.93055 17.4719 6.96372C17.0955 5.99689 16.5297 5.115 15.8078 4.3698C15.0859 3.6246 14.2224 3.03111 13.268 2.62416C12.3136 2.21722 11.2875 2.00501 10.25 2V2Z" fill="#72F6FF"/>
</svg>
