<svg width="20" height="20" viewBox="0 0 20 20" fill="none" xmlns="http://www.w3.org/2000/svg">
<path d="M13.0303 4.46967L9.99999 1.43934L6.96966 4.46967L8.03032 5.53033L9.25 4.31065V9.25H4.31065L5.53032 8.03033L4.46966 6.96967L1.43933 10L4.46966 13.0303L5.53032 11.9697L4.31065 10.75H9.25V15.6893L8.03032 14.4697L6.96966 15.5303L9.99999 18.5607L13.0303 15.5303L11.9697 14.4697L10.75 15.6893V10.75H15.6893L14.4697 11.9697L15.5303 13.0303L18.5606 10L15.5303 6.96967L14.4697 8.03033L15.6893 9.25H10.75V4.31067L11.9697 5.53033L13.0303 4.46967Z" fill="#72F6FF"/>
</svg>
