<svg width="20" height="20" viewBox="0 0 20 20" fill="none" xmlns="http://www.w3.org/2000/svg">
<path fill-rule="evenodd" clip-rule="evenodd" d="M5.62016 13.0155L2.5 2.5L13.0155 5.62016C13.0508 6.0738 13.1138 6.59801 13.2209 7.17668C13.5113 8.74464 14.1285 10.7213 15.403 12.7686L12.7686 15.403C10.7213 14.1285 8.74464 13.5113 7.17668 13.2209C6.59801 13.1138 6.0738 13.0508 5.62016 13.0155ZM13 18C8.5 14.5 4 15 4 15L1 1L15 4C15 4 14.5 8.5 18 13L13 18Z" fill="#72F6FF"/>
<path fill-rule="evenodd" clip-rule="evenodd" d="M1.96967 1.96967C2.26256 1.67678 2.73744 1.67678 3.03033 1.96967L8.5 7.5L10 8V10H8L7.5 8.5L1.96967 3.03033C1.67678 2.73744 1.67678 2.26256 1.96967 1.96967Z" fill="#72F6FF"/>
</svg>
