<svg width="20" height="20" viewBox="0 0 20 20" fill="none" xmlns="http://www.w3.org/2000/svg">
<path d="M16.1016 12C15.7234 13.2041 14.9794 14.2604 13.973 15.0221C12.9667 15.7838 11.7481 16.213 10.4865 16.25C6.58313 16.25 3.75 13.6215 3.75 10C3.75 6.32007 6.109 3.75 9.48645 3.75C11.939 3.75 14.3518 5.60358 15.5198 8H11V10H18V2H16V5.476C15.2456 4.44402 14.2682 3.59551 13.1404 2.99368C12.0127 2.39184 10.7637 2.05218 9.48645 2C4.97394 2 2 5.48749 2 10C2 14.4875 5.48645 18 10.4865 18C12.2113 17.9611 13.8745 17.3509 15.2151 16.2651C16.5558 15.1792 17.4982 13.6791 17.8945 12H16.1016Z" fill="#72F6FF"/>
</svg>
