<svg width="20" height="20" viewBox="0 0 20 20" fill="none" xmlns="http://www.w3.org/2000/svg">
<path d="M2.08313 8.00257C2.39962 6.28429 3.31944 4.73555 4.67682 3.63546C6.0342 2.53537 7.73987 1.95629 9.48645 2.00257C12.0233 2.00257 14.4044 3.74567 16 5.89582V3.00257H18V10.0026H12V8.00257H15.288C14.0519 5.83157 11.7895 3.75257 9.48643 3.75257C8.2046 3.71486 6.94824 4.11542 5.9248 4.88811C4.90135 5.66081 4.17202 6.75943 3.85724 8.00257H2.08313ZM16.1422 12.0026C15.8228 13.2483 15.0886 14.348 14.0605 15.1205C13.0324 15.8931 11.7719 16.2923 10.4865 16.2526C8.04651 16.2526 5.646 14.3996 4.48114 12.0026H8V10.0026H2V17.0026H4V14.528C4.74897 15.5591 5.72157 16.4072 6.84492 17.0089C7.96826 17.6107 9.21322 17.9504 10.4865 18.0026C12.2348 18.0444 13.9413 17.4643 15.3018 16.3655C16.6623 15.2666 17.5886 13.7206 17.9156 12.0026H16.1422Z" fill="#72F6FF"/>
</svg>
