<svg width="20" height="20" viewBox="0 0 20 20" fill="none" xmlns="http://www.w3.org/2000/svg">
<path fill-rule="evenodd" clip-rule="evenodd" d="M7 7H13V13H7V7ZM11 9H9V11H11V9Z" fill="#72F6FF"/>
<rect x="6" y="2" width="2" height="3" fill="#72F6FF"/>
<rect x="9" y="2" width="2" height="3" fill="#72F6FF"/>
<rect x="12" y="2" width="2" height="3" fill="#72F6FF"/>
<rect x="15" y="6" width="3" height="2" fill="#72F6FF"/>
<rect x="15" y="9" width="3" height="2" fill="#72F6FF"/>
<rect x="15" y="12" width="3" height="2" fill="#72F6FF"/>
<rect x="12" y="15" width="2" height="3" fill="#72F6FF"/>
<rect x="9" y="15" width="2" height="3" fill="#72F6FF"/>
<rect x="6" y="15" width="2" height="3" fill="#72F6FF"/>
<rect x="2" y="12" width="3" height="2" fill="#72F6FF"/>
<rect x="2" y="9" width="3" height="2" fill="#72F6FF"/>
<rect x="2" y="6" width="3" height="2" fill="#72F6FF"/>
</svg>
