<svg width="20" height="20" viewBox="0 0 20 20" fill="none" xmlns="http://www.w3.org/2000/svg">
<path d="M15 9V7C15 6.01112 14.7068 5.04444 14.1575 4.2222C13.6081 3.39996 12.8273 2.75909 11.9137 2.38064C11.0001 2.00219 9.99476 1.90315 9.02487 2.09605C8.05499 2.28895 7.16409 2.76513 6.46484 3.46436L5.75784 4.17136L7.17188 5.58545L7.87888 4.87845C8.29846 4.45895 8.83301 4.17328 9.41494 4.05757C9.99687 3.94187 10.6 4.00131 11.1482 4.2284C11.6963 4.45548 12.1648 4.84 12.4945 5.33334C12.8241 5.82668 13 6.40668 13 7V9H3V18H17V9H15ZM15 16H5V11H15V16Z" fill="#72F6FF"/>
</svg>
