<svg width="20" height="20" viewBox="0 0 20 20" fill="none" xmlns="http://www.w3.org/2000/svg">
<path fill-rule="evenodd" clip-rule="evenodd" d="M2 18H18L15.5 7H4.5L2 18ZM6.125 9L4.5 16H15.5L13.875 9H6.125Z" fill="#72F6FF"/>
<path fill-rule="evenodd" clip-rule="evenodd" d="M10 9C11.933 9 13.5 7.433 13.5 5.5C13.5 3.567 11.933 2 10 2C8.067 2 6.5 3.567 6.5 5.5C6.5 7.433 8.067 9 10 9ZM10 7C10.8284 7 11.5 6.32843 11.5 5.5C11.5 4.67157 10.8284 4 10 4C9.17157 4 8.5 4.67157 8.5 5.5C8.5 6.32843 9.17157 7 10 7Z" fill="#72F6FF"/>
</svg>
