<svg width="20" height="20" viewBox="0 0 20 20" fill="none" xmlns="http://www.w3.org/2000/svg">
<path d="M16 16H4L5.5 8H14.5L16 16Z" fill="#72F6FF"/>
<path fill-rule="evenodd" clip-rule="evenodd" d="M10 9.5C11.5188 9.5 12.75 8.26878 12.75 6.75C12.75 5.23122 11.5188 4 10 4C8.48122 4 7.25 5.23122 7.25 6.75C7.25 8.26878 8.48122 9.5 10 9.5ZM10 8C10.6904 8 11.25 7.44036 11.25 6.75C11.25 6.05964 10.6904 5.5 10 5.5C9.30964 5.5 8.75 6.05964 8.75 6.75C8.75 7.44036 9.30964 8 10 8Z" fill="#72F6FF"/>
</svg>
