<svg xmlns="http://www.w3.org/2000/svg" xmlns:xlink="http://www.w3.org/1999/xlink" viewBox="0 0 32 32"><path fill="#FFB900" d="M15 8l-1.268-1.268A2.5 2.5 0 0011.964 6H3.5A1.5 1.5 0 002 7.5v17A1.5 1.5 0 003.5 26h25a1.5 1.5 0 001.5-1.5v-15A1.5 1.5 0 0028.5 8H15z"/><path fill="#FFD75E" d="M15 8l-1.268 1.268a2.5 2.5 0 01-1.768.732H2v14.5A1.5 1.5 0 003.5 26h25a1.5 1.5 0 001.5-1.5v-15A1.5 1.5 0 0028.5 8H15z"/><linearGradient id="a" gradientUnits="userSpaceOnUse" x1="16" y1="8" x2="16" y2="26"><stop offset="0" stop-color="#fff" stop-opacity="0"/><stop offset=".999" stop-color="#ffd75e" stop-opacity=".3"/></linearGradient><path fill="url(#a)" d="M15 8l-1.268 1.268a2.5 2.5 0 01-1.768.732H2v14.5A1.5 1.5 0 003.5 26h25a1.5 1.5 0 001.5-1.5v-15A1.5 1.5 0 0028.5 8H15z"/><path fill="#E67628" d="M3 25.5c-.286 0-.55-.084-.777-.223.263.432.734.723 1.277.723h25c.543 0 1.014-.291 1.277-.723A1.488 1.488 0 0129 25.5H3z"/><path opacity=".4" fill="#FFF" d="M14.129 9.621L15.75 8H15l-1.268 1.268a2.5 2.5 0 01-1.768.732H2v.5h10.007a3 3 0 002.122-.879z"/><g><image overflow="visible" opacity=".25" width="70" height="49" xlink:href="A9E1532C0B10D778.png" transform="matrix(.24 0 0 .24 .6 19.88)"/><path fill="#FFF" d="M11.813 21H6.146c-2.182 0-4.193 2.014-4.193 4.49s2.01 4.492 4.193 4.492h5.667c2.182 0 4.21-2.015 4.21-4.491S13.995 21 11.813 21z"/></g><g fill="none" stroke="#005A9E" stroke-linecap="round" stroke-miterlimit="10"><path d="M10.5 22.5l.448.004C13.292 22.5 14.5 23.896 14.5 25.5v0c0 1.599-1.125 3-3.534 2.995l-.466.005M7.5 28.5l-.448-.004C4.708 28.5 3.5 27.104 3.5 25.5v0c0-1.599 1.125-3 3.534-2.995L7.5 22.5M6.5 25.5h5.125"/></g></svg>