<svg xmlns="http://www.w3.org/2000/svg" viewBox="0 0 48 48"><path fill="#FFF" d="M43 41.5V15H5v26.5c0 .827.673 1.5 1.5 1.5h35c.827 0 1.5-.673 1.5-1.5zM14.5 9a.5.5 0 01-.5-.5v-3a.5.5 0 011 0v3a.5.5 0 01-.5.5zm19 0a.5.5 0 00.5-.5V7h-1v1.5a.5.5 0 00.5.5z"/><path fill="#FFF" d="M41.5 7H35v1.5c0 .827-.673 1.5-1.5 1.5S32 9.327 32 8.5V7H16v1.5c0 .827-.673 1.5-1.5 1.5S13 9.327 13 8.5V7H6.5C5.673 7 5 7.673 5 8.5V14h38V8.5c0-.827-.673-1.5-1.5-1.5z"/><path fill="#FFF" d="M33.5 9a.5.5 0 01-.5-.5v-3a.5.5 0 011 0v3a.5.5 0 01-.5.5z"/><path opacity=".64" fill="#605E5C" d="M41.5 6H35v-.5c0-.827-.673-1.5-1.5-1.5S32 4.673 32 5.5V6H16v-.5c0-.827-.673-1.5-1.5-1.5S13 4.673 13 5.5V6H6.5A2.503 2.503 0 004 8.5v33C4 42.878 5.121 44 6.5 44h35c1.379 0 2.5-1.122 2.5-2.5v-33C44 7.122 42.879 6 41.5 6zM33 5.5a.5.5 0 011 0v3a.5.5 0 01-1 0v-3zm-19 0a.5.5 0 011 0v3a.5.5 0 01-1 0v-3zm29 36c0 .827-.673 1.5-1.5 1.5h-35c-.827 0-1.5-.673-1.5-1.5V15h38v26.5zM43 14H5V8.5C5 7.673 5.673 7 6.5 7H13v1.5c0 .827.673 1.5 1.5 1.5S16 9.327 16 8.5V7h16v1.5c0 .827.673 1.5 1.5 1.5S35 9.327 35 8.5V7h6.5c.827 0 1.5.673 1.5 1.5V14z"/><circle fill="#C8C6C4" cx="14" cy="23" r="1"/><circle fill="#C8C6C4" cx="24" cy="23" r="1"/><circle fill="#C8C6C4" cx="19" cy="23" r="1"/><circle fill="#C8C6C4" cx="34" cy="23" r="1"/><circle fill="#C8C6C4" cx="29" cy="23" r="1"/><circle fill="#C8C6C4" cx="14" cy="29" r="1"/><circle fill="#C8C6C4" cx="24" cy="29" r="1"/><circle fill="#C8C6C4" cx="19" cy="29" r="1"/><circle fill="#C8C6C4" cx="34" cy="29" r="1"/><circle fill="#C8C6C4" cx="29" cy="29" r="1"/><circle fill="#C8C6C4" cx="14" cy="35" r="1"/><circle fill="#C8C6C4" cx="24" cy="35" r="1"/><circle fill="#C8C6C4" cx="19" cy="35" r="1"/><circle fill="#C8C6C4" cx="34" cy="35" r="1"/><circle fill="#C8C6C4" cx="29" cy="35" r="1"/></svg>