<svg xmlns="http://www.w3.org/2000/svg" viewBox="0 0 48 48"><path fill="#FFF" d="M5.5 38h37a.5.5 0 00.5-.5V10.688L24.344 28.363a.499.499 0 01-.688 0L5 10.688V37.5a.5.5 0 00.5.5z"/><path fill="#FFF" d="M42.273 10H5.727L24 27.311z"/><path opacity=".64" fill="#605E5C" d="M42.5 9h-37C4.673 9 4 9.673 4 10.5v27c0 .827.673 1.5 1.5 1.5h37c.827 0 1.5-.673 1.5-1.5v-27c0-.827-.673-1.5-1.5-1.5zm-.227 1L24 27.311 5.727 10h36.546zm.227 28h-37a.5.5 0 01-.5-.5V10.688l18.656 17.675a.499.499 0 00.688 0L43 10.688V37.5a.5.5 0 01-.5.5z"/></svg>