<svg xmlns="http://www.w3.org/2000/svg" viewBox="0 0 48 48"><path fill="#FFF" d="M43 6.5c0-.827-.673-1.5-1.5-1.5h-35C5.673 5 5 5.673 5 6.5v35c0 .827.673 1.5 1.5 1.5h35c.827 0 1.5-.673 1.5-1.5v-35z"/><path opacity=".64" fill="#605E5C" d="M41.5 44h-35A2.503 2.503 0 014 41.5v-35C4 5.122 5.121 4 6.5 4h35C42.879 4 44 5.122 44 6.5v35c0 1.378-1.121 2.5-2.5 2.5zM6.5 5C5.673 5 5 5.673 5 6.5v35c0 .827.673 1.5 1.5 1.5h35c.827 0 1.5-.673 1.5-1.5v-35c0-.827-.673-1.5-1.5-1.5h-35z"/><path fill="#949494" d="M17.438 13a.57.57 0 01.562.563v3.874a.57.57 0 01-.563.563h-3.875a.57.57 0 01-.562-.563v-3.875a.57.57 0 01.563-.562h3.874m0-1h-3.875c-.859 0-1.562.703-1.562 1.563v3.874c0 .86.703 1.563 1.563 1.563h3.874c.86 0 1.563-.703 1.563-1.563v-3.875c0-.859-.703-1.562-1.563-1.562z"/><path fill="none" d="M11.75 11.75h24.5v24.5h-24.5z"/><path fill="#1E8BCD" d="M33.656 36h-8.312A2.35 2.35 0 0123 33.656v-8.312A2.35 2.35 0 0125.344 23h8.312A2.35 2.35 0 0136 25.344v8.312A2.35 2.35 0 0133.656 36z"/><path fill="#949494" d="M20 16h9.294c.94 0 1.706.765 1.706 1.706V22h1v-4.294A2.71 2.71 0 0029.294 15H20v1zM22 31h-4.417C16.71 31 16 30.29 16 29.416V20h-1v9.416A2.587 2.587 0 0017.584 32H22v-1z"/></svg>