<svg xmlns="http://www.w3.org/2000/svg" xmlns:xlink="http://www.w3.org/1999/xlink" viewBox="0 0 48 48"><path fill="#FFB900" d="M22 12l-1.828-1.828A4 4 0 0017.343 9H5.5A2.5 2.5 0 003 11.5v25A2.5 2.5 0 005.5 39h37a2.5 2.5 0 002.5-2.5v-22a2.5 2.5 0 00-2.5-2.5H22z"/><path fill="#FFD75E" d="M22 12l-1.975 1.975A3.5 3.5 0 0117.55 15H3v21.5A2.5 2.5 0 005.5 39h37a2.5 2.5 0 002.5-2.5v-22a2.5 2.5 0 00-2.5-2.5H22z"/><linearGradient id="a" gradientUnits="userSpaceOnUse" x1="24" y1="12" x2="24" y2="39"><stop offset="0" stop-color="#fff" stop-opacity="0"/><stop offset=".999" stop-color="#ffd75e" stop-opacity=".3"/></linearGradient><path fill="url(#a)" d="M22 12l-1.828 1.828A4 4 0 0117.343 15H3v21.5A2.5 2.5 0 005.5 39h37a2.5 2.5 0 002.5-2.5v-22a2.5 2.5 0 00-2.5-2.5H22z"/><path opacity=".4" fill="#FFF" d="M22 12l-1.828 1.828A4 4 0 0117.343 15H3v1h14.636a4.5 4.5 0 003.182-1.318L23.5 12H22z"/><path fill="#E67628" d="M5 38a2.971 2.971 0 01-1.84-.647A2.493 2.493 0 005.5 39h37c1.08 0 1.991-.689 2.34-1.647-.509.399-1.142.647-1.84.647H5z"/><g><image overflow="visible" opacity=".25" width="90" height="61" xlink:href="C7B3E71E15A1760D.png" transform="matrix(.24 0 0 .24 1.28 31.64)"/><path fill="#FFF" d="M15.2 32.5H8.8c-3.987 0-6.3 2.928-6.3 6 0 2.983 2.313 6 6.3 6h6.4c4.231 0 6.3-3.054 6.3-6 0-3.035-2.165-6-6.3-6z"/></g><g fill="none" stroke="#005A9E" stroke-linecap="round" stroke-miterlimit="10"><path stroke-width="1.5" stroke-linejoin="round" d="M13.694 42.302h1.272c2.565 0 4.393-1.552 4.393-3.776v0c0-2.224-1.765-3.86-4.393-3.86h-1.272M10.36 34.667H9.086c-2.556 0-4.393 1.552-4.393 3.776v0c0 2.223 1.775 3.86 4.393 3.86h1.272"/><path stroke-width="1.4" d="M9.682 38.521h4.636"/></g></svg>