<svg xmlns="http://www.w3.org/2000/svg" viewBox="0 0 48 48"><path fill="#FFF" d="M39 44H9V4h21l9 9z"/><path fill="#949494" d="M30 3H8v42h32V13L30 3zm0 1.5l8.5 8.5H30V4.5zM39 44H9V4h20v10h10v30z"/><path fill="#C8C8C8" d="M15 18h21v1H15zM15 21h21v1H15zM15 24h18v1H15zM15 27h18v1H15zM15 30h15v1H15zM15 33h15v1H15zM15 36h21v1H15zM15 39h21v1H15z"/><path fill="#69AFE5" d="M12 18h1v1h-1zM12 21h1v1h-1zM12 24h1v1h-1zM12 27h1v1h-1zM12 30h1v1h-1zM12 33h1v1h-1zM12 36h1v1h-1zM12 39h1v1h-1z"/><linearGradient id="a" gradientUnits="userSpaceOnUse" x1="4.587" y1="5.864" x2="38.489" y2="46.268"><stop offset="0" stop-color="#fff" stop-opacity="0"/><stop offset=".226" stop-color="#fcfcfc" stop-opacity=".023"/><stop offset=".363" stop-color="#f4f4f4" stop-opacity=".036"/><stop offset=".475" stop-color="#e6e6e6" stop-opacity=".048"/><stop offset=".574" stop-color="#d1d1d1" stop-opacity=".057"/><stop offset=".665" stop-color="#b7b7b7" stop-opacity=".067"/><stop offset=".75" stop-color="#979797" stop-opacity=".075"/><stop offset=".83" stop-color="#707070" stop-opacity=".083"/><stop offset=".906" stop-color="#444" stop-opacity=".091"/><stop offset=".976" stop-color="#121212" stop-opacity=".098"/><stop offset="1" stop-opacity=".1"/></linearGradient><path fill="url(#a)" d="M40 13L30 3H8v42h32V13z"/><linearGradient id="b" gradientUnits="userSpaceOnUse" x1="34" y1="16.906" x2="34" y2="14.088"><stop offset="0" stop-color="#828282" stop-opacity="0"/><stop offset=".281" stop-color="#7f7f7f" stop-opacity=".028"/><stop offset=".45" stop-color="#777" stop-opacity=".045"/><stop offset=".59" stop-color="#696969" stop-opacity=".059"/><stop offset=".713" stop-color="#545454" stop-opacity=".071"/><stop offset=".826" stop-color="#3a3a3a" stop-opacity=".083"/><stop offset=".929" stop-color="#1a1a1a" stop-opacity=".093"/><stop offset="1" stop-opacity=".1"/></linearGradient><path fill="url(#b)" d="M29 14h10v3H29z"/><linearGradient id="c" gradientUnits="userSpaceOnUse" x1="27.27" y1="12.23" x2="33.236" y2="6.264"><stop offset="0" stop-color="#fff" stop-opacity="0"/><stop offset=".854" stop-color="#fff" stop-opacity=".213"/><stop offset="1" stop-color="#fff" stop-opacity=".25"/></linearGradient><path fill="url(#c)" d="M8 3v1h21v10h10v14h1V13L30 3z"/></svg>