<svg xmlns="http://www.w3.org/2000/svg" viewBox="0 0 24 24"><path fill="#FFF" d="M3.5 21h17c.275 0 .5-.225.5-.5v-17c0-.275-.225-.5-.5-.5h-17c-.275 0-.5.225-.5.5v17c0 .275.225.5.5.5z"/><path opacity=".64" fill="#605E5C" d="M20.5 22h-17c-.827 0-1.5-.673-1.5-1.5v-17C2 2.673 2.673 2 3.5 2h17c.827 0 1.5.673 1.5 1.5v17c0 .827-.673 1.5-1.5 1.5zM3.5 3a.5.5 0 00-.5.5v17a.5.5 0 00.5.5h17a.5.5 0 00.5-.5v-17a.5.5 0 00-.5-.5h-17z"/><path fill="#949494" d="M15 8.5V10h1V8.5c0-.825-.675-1.5-1.5-1.5H11v1h3.5c.271 0 .5.229.5.5zM10 15H8.5a.507.507 0 01-.5-.5V11H7v3.5c0 .825.675 1.5 1.5 1.5H10v-1zM9 7v2H7V7h2m0-1H7c-.55 0-1 .45-1 1v2c0 .55.45 1 1 1h2c.55 0 1-.45 1-1V7c0-.55-.45-1-1-1z"/><path fill="#1E8BCD" d="M16.5 18h-4c-.825 0-1.5-.675-1.5-1.5v-4c0-.825.675-1.5 1.5-1.5h4c.825 0 1.5.675 1.5 1.5v4c0 .825-.675 1.5-1.5 1.5z"/></svg>