<svg xmlns="http://www.w3.org/2000/svg" xmlns:xlink="http://www.w3.org/1999/xlink" viewBox="0 0 24 24"><path fill="#FFB900" d="M12 6l-1.268-1.268A2.5 2.5 0 008.964 4H2.5A1.5 1.5 0 001 5.5v13A1.5 1.5 0 002.5 20h19a1.5 1.5 0 001.5-1.5v-11A1.5 1.5 0 0021.5 6H12z"/><path fill="#FFD75E" d="M12 6l-1.268 1.268A2.5 2.5 0 018.964 8H1v10.5A1.5 1.5 0 002.5 20h19a1.5 1.5 0 001.5-1.5v-11A1.5 1.5 0 0021.5 6H12z"/><linearGradient id="a" gradientUnits="userSpaceOnUse" x1="12" y1="6" x2="12" y2="20"><stop offset="0" stop-color="#fff" stop-opacity="0"/><stop offset=".999" stop-color="#ffd75e" stop-opacity=".3"/></linearGradient><path fill="url(#a)" d="M12 6l-1.268 1.268A2.5 2.5 0 018.964 8H1v10.5A1.5 1.5 0 002.5 20h19a1.5 1.5 0 001.5-1.5v-11A1.5 1.5 0 0021.5 6H12z"/><path fill="#E67628" d="M2 19.5c-.286 0-.55-.084-.777-.223.263.432.734.723 1.277.723h19c.543 0 1.014-.291 1.277-.723A1.488 1.488 0 0122 19.5H2z"/><path opacity=".4" fill="#FFF" d="M11.129 7.621L12.75 6H12l-1.268 1.268A2.5 2.5 0 018.964 8H1v.5h8.007a3 3 0 002.122-.879z"/><g><image overflow="visible" opacity=".25" width="65" height="43" xlink:href="C9DB6997D9458B9F.png" transform="matrix(.24 0 0 .24 .16 13.52)"/><path fill="#FFF" d="M10.813 14H5.146C2.964 14 .953 16.014.953 18.49s2.01 4.492 4.193 4.492h5.667c2.182 0 4.21-2.015 4.21-4.491S12.995 14 10.814 14z"/></g><g fill="none" stroke="#005A9E" stroke-linecap="round" stroke-miterlimit="10"><path d="M9.5 15.5l.448.004C12.292 15.5 13.5 16.896 13.5 18.5v0c0 1.599-1.125 3-3.534 2.995L9.5 21.5M6.5 21.5l-.448-.004C3.708 21.5 2.5 20.104 2.5 18.5v0c0-1.599 1.125-3 3.534-2.995L6.5 15.5M5.5 18.5h5.125"/></g></svg>