<svg xmlns="http://www.w3.org/2000/svg" viewBox="0 0 24 24"><path opacity=".64" fill="#605E5C" d="M7.512 19.991a2.489 2.489 0 01-2.491-2.485L5 5.502a1.488 1.488 0 01.438-1.062c.283-.284.66-.44 1.06-.44h13.007C20.33 4 21 4.672 21 5.499l-.001 4.504h1.5a.5.5 0 01.5.5l-.013 6.995a2.508 2.508 0 01-2.5 2.493H7.511zM6.498 5a.498.498 0 00-.5.5l.021 12.005a1.5 1.5 0 001.49 1.502h12.957c.823 0 1.52-.686 1.522-1.51l.012-6.5h-.997v5.496a.5.5 0 11-.999 0V5.499a.5.5 0 00-.5-.5H6.499z"/><path fill="#FFF" d="M7.497 19.01H7.5l12.988-.008a1.504 1.504 0 001.5-1.497l.01-6.505H21v5.5a.5.5 0 11-1 0v-11c0-.275-.225-.5-.5-.5H6.477a.498.498 0 00-.5.501l.02 12.012a1.503 1.503 0 001.5 1.498z"/><path fill="#03787C" d="M2 18h10a1 1 0 001-1V7a1 1 0 00-1-1H2a1 1 0 00-1 1v10a1 1 0 001 1z"/><path fill="#FFF" d="M5.645 11.895a1.58 1.58 0 01-.479-.522A1.468 1.468 0 015 10.659c0-.367.103-.675.31-.924.206-.25.48-.435.823-.555.343-.12.718-.18 1.126-.18.625 0 1.119.071 1.482.214v1.08c-.194-.123-.417-.218-.67-.283s-.516-.097-.785-.097c-.324 0-.593.059-.805.177-.214.116-.32.283-.32.5 0 .134.045.252.135.353.09.102.211.19.365.27a11.198 11.198 0 00.782.351c.358.152.646.298.863.439.217.142.386.319.51.53.123.212.184.478.184.8 0 .393-.097.714-.29.962a1.623 1.623 0 01-.777.538A3.401 3.401 0 016.827 15a5.66 5.66 0 01-1.002-.085 3.36 3.36 0 01-.813-.243v-1.14c.222.17.496.304.823.404s.63.15.906.15c.363 0 .637-.06.822-.18a.573.573 0 00.276-.508.551.551 0 00-.155-.389 1.564 1.564 0 00-.427-.307 13.467 13.467 0 00-.806-.372 4.628 4.628 0 01-.806-.435z"/><path fill="#1A9BA1" d="M17.5 13H14v1h3.5a.5.5 0 000-1z"/><path fill="#37C6D0" d="M14 12h3a1 1 0 001-1v-1a1 1 0 00-1-1h-3v3z"/></svg>