<svg xmlns="http://www.w3.org/2000/svg" viewBox="0 0 16 16"><path fill="#FFF" d="M2.5 3a.5.5 0 00-.5.5V6h12V3.5a.5.5 0 00-.5-.5h-11zM14 13.5V7H2v6.5a.5.5 0 00.5.5h11a.5.5 0 00.5-.5z"/><path opacity=".64" fill="#605E5C" d="M13.5 2h-11C1.673 2 1 2.673 1 3.5v10c0 .827.673 1.5 1.5 1.5h11c.827 0 1.5-.673 1.5-1.5v-10c0-.827-.673-1.5-1.5-1.5zm-11 1h11a.5.5 0 01.5.5V6H2V3.5a.5.5 0 01.5-.5zm11 11h-11a.5.5 0 01-.5-.5V7h12v6.5a.5.5 0 01-.5.5z"/><path fill="#999796" d="M4.5 4a.5.5 0 01-.5-.5v-2a.5.5 0 011 0v2a.5.5 0 01-.5.5zm7 0a.5.5 0 01-.5-.5v-2a.5.5 0 011 0v2a.5.5 0 01-.5.5z"/></svg>