<svg xmlns="http://www.w3.org/2000/svg" viewBox="0 0 16 16"><path fill="#FFF" d="M2.5 14h11c.275 0 .5-.225.5-.5v-11c0-.275-.225-.5-.5-.5h-11c-.275 0-.5.225-.5.5v11c0 .275.225.5.5.5z"/><path opacity=".64" fill="#605E5C" d="M13.5 15h-11c-.827 0-1.5-.673-1.5-1.5v-11C1 1.673 1.673 1 2.5 1h11c.827 0 1.5.673 1.5 1.5v11c0 .827-.673 1.5-1.5 1.5zM2.5 2a.5.5 0 00-.5.5v11a.5.5 0 00.5.5h11a.5.5 0 00.5-.5v-11a.5.5 0 00-.5-.5h-11z"/><path fill="#949494" d="M10 4H7v1h3v1h1V5c0-.55-.45-1-1-1zM5 7H4v3c0 .55.45 1 1 1h1v-1H5V7zM5 4v1H4V4h1m0-1H4c-.55 0-1 .45-1 1v1c0 .55.45 1 1 1h1c.55 0 1-.45 1-1V4c0-.55-.45-1-1-1z"/><path fill="#1E8BCD" d="M8 7h4c.55 0 1 .45 1 1v4c0 .55-.45 1-1 1H8c-.55 0-1-.45-1-1V8c0-.55.45-1 1-1z"/></svg>