<svg xmlns="http://www.w3.org/2000/svg" xmlns:xlink="http://www.w3.org/1999/xlink" viewBox="0 0 16 16"><path fill="#FFB900" d="M8 4L6.586 2.586A2 2 0 005.172 2H1a1 1 0 00-1 1v10a1 1 0 001 1h14a1 1 0 001-1V5a1 1 0 00-1-1H8z"/><path fill="#FFD75E" d="M8 4L6.586 5.414A2 2 0 015.172 6H0v7a1 1 0 001 1h14a1 1 0 001-1V5a1 1 0 00-1-1H8z"/><linearGradient id="a" gradientUnits="userSpaceOnUse" x1="8" y1="4" x2="8" y2="14"><stop offset="0" stop-color="#fff" stop-opacity="0"/><stop offset=".999" stop-color="#ffd75e" stop-opacity=".3"/></linearGradient><path fill="url(#a)" d="M8 4L6.586 5.414A2 2 0 015.172 6H0v7a1 1 0 001 1h14a1 1 0 001-1V5a1 1 0 00-1-1H8z"/><path fill="#E67628" d="M1 13.5c-.373 0-.71-.142-.973-.367A.988.988 0 001 14h14c.505 0 .905-.38.973-.867-.262.226-.6.367-.973.367H1z"/><path opacity=".4" fill="#FFF" d="M6.836 5.914L8.75 4H8L6.586 5.414A2 2 0 015.172 6H0v.5h5.422a2 2 0 001.414-.586z"/><g><image overflow="visible" opacity=".25" width="57" height="35" xlink:href="E9D58003A77A3FC2.png" transform="matrix(.24 0 0 .24 .08 7.52)"/><path fill="#FFF" d="M9.688 7.999H4.255c-1.878 0-3.35 1.587-3.35 3.538s1.577 3.434 3.454 3.434h5.433c1.877 0 3.22-1.483 3.22-3.434s-1.447-3.538-3.325-3.538z"/></g><g fill="none" stroke="#005A9E" stroke-linecap="round" stroke-miterlimit="10"><path d="M8.5 9.406l.734.003c1.592 0 2.287.975 2.287 2.099v0c0 1.12-.73 2.098-2.287 2.098l-.734.003M5.52 13.61l-.734-.003c-1.591 0-2.286-.976-2.286-2.1v0c0-1.12.73-2.097 2.286-2.097l.735-.004M5.5 11.5h3"/></g></svg>