<svg xmlns="http://www.w3.org/2000/svg" viewBox="0 0 16 16"><path fill="#FFF" d="M2.5 14h11c.275 0 .5-.225.5-.5v-11c0-.275-.225-.5-.5-.5h-11c-.275 0-.5.225-.5.5v11c0 .275.225.5.5.5z"/><path fill="none" stroke="#A6CCC3" stroke-miterlimit="10" d="M9.278 8.63l-.608.846-1.285-1.684a1 1 0 00-1.59 0L4.19 9.893a1 1 0 00.795 1.607h6.029a1 1 0 00.811-1.584l-.924-1.286a1 1 0 00-1.624 0z"/><circle fill="none" stroke="#FF9810" stroke-miterlimit="10" cx="10.5" cy="5.5" r="1"/><path opacity=".64" fill="#605E5C" d="M13.5 15h-11c-.827 0-1.5-.673-1.5-1.5v-11C1 1.673 1.673 1 2.5 1h11c.827 0 1.5.673 1.5 1.5v11c0 .827-.673 1.5-1.5 1.5zM2.5 2a.5.5 0 00-.5.5v11a.5.5 0 00.5.5h11a.5.5 0 00.5-.5v-11a.5.5 0 00-.5-.5h-11z"/></svg>