<svg xmlns="http://www.w3.org/2000/svg" viewBox="0 0 16 16"><path fill="#FFF" d="M1.5 13h13c.267 0 .5-.162.5-.346V6h-2.5c-.827 0-1.5-.673-1.5-1.5V3H1.5c-.267 0-.5.162-.5.346v9.308c0 .184.233.346.5.346z"/><path fill="#FFF" d="M14.638 5L12.01 3.157c-.003-.003-.007-.003-.01-.006V4.5a.5.5 0 00.5.5h2.138z"/><path opacity=".64" fill="#605E5C" d="M15.494 4.381L12.62 2.366A1.592 1.592 0 0011.59 2H1.5C.673 2 0 2.604 0 3.346v9.308C0 13.396.673 14 1.5 14h13c.827 0 1.5-.604 1.5-1.346V5.389c0-.37-.17-.727-.506-1.008zM14.638 5H12.5a.5.5 0 01-.5-.5V3.151c.003.003.007.003.01.006L14.638 5zm-.138 8h-13c-.267 0-.5-.162-.5-.346V3.346C1 3.162 1.233 3 1.5 3H11v1.5c0 .827.673 1.5 1.5 1.5H15v6.654c0 .184-.233.346-.5.346z"/><path fill="#C8C6C4" d="M6.5 7h-4a.5.5 0 010-1h4a.5.5 0 010 1zm0 2h-4a.5.5 0 010-1h4a.5.5 0 010 1zm0 2h-4a.5.5 0 010-1h4a.5.5 0 010 1z"/><path fill="#B7472A" d="M11 7a1 1 0 011 1h-1V7z"/><path fill="#C8C6C4" d="M12 9a2.002 2.002 0 01-2.433 1.954 1.99 1.99 0 01-1.522-1.522A2.002 2.002 0 0110 7v2h2z"/></svg>