<svg xmlns="http://www.w3.org/2000/svg" viewBox="0 0 16 16"><path fill="#FFB900" d="M8 4L6.586 2.586A2 2 0 005.172 2H1a1 1 0 00-1 1v10a1 1 0 001 1h14a1 1 0 001-1V5a1 1 0 00-1-1H8z"/><path fill="#FFD75E" d="M8 4L6.586 5.414A2 2 0 015.172 6H0v7a1 1 0 001 1h14a1 1 0 001-1V5a1 1 0 00-1-1H8z"/><linearGradient id="a" gradientUnits="userSpaceOnUse" x1="8" y1="4" x2="8" y2="14"><stop offset="0" stop-color="#fff" stop-opacity="0"/><stop offset=".999" stop-color="#ffd75e" stop-opacity=".3"/></linearGradient><path fill="url(#a)" d="M8 4L6.586 5.414A2 2 0 015.172 6H0v7a1 1 0 001 1h14a1 1 0 001-1V5a1 1 0 00-1-1H8z"/><path fill="#E67628" d="M1 13.5c-.373 0-.71-.142-.973-.367A.988.988 0 001 14h14c.505 0 .905-.38.973-.867-.262.226-.6.367-.973.367H1z"/><path opacity=".4" fill="#FFF" d="M6.836 5.914L8.75 4H8L6.586 5.414A2 2 0 015.172 6H0v.5h5.422a2 2 0 001.414-.586z"/><path fill="#E67628" d="M1 13.5c-.373 0-.71-.142-.973-.367A.988.988 0 001 14h14c.505 0 .905-.38.973-.867-.262.226-.6.367-.973.367H1z"/><path fill="#BF5712" d="M12.56 9.661c.41-.318.649-.799.649-1.321 0-.927-.755-1.682-1.682-1.682s-1.682.754-1.682 1.682c0 .522.24 1.003.648 1.321a2.48 2.48 0 00-1.438 2.24V12h.593v-.1c0-1.035.843-1.878 1.879-1.878s1.878.843 1.878 1.878v.1H14v-.1c0-.96-.571-1.837-1.44-2.239zm.054-1.321a1.088 1.088 0 01-2.174 0 1.088 1.088 0 012.174 0z"/></svg>