<svg xmlns="http://www.w3.org/2000/svg" viewBox="0 0 16 16"><path fill="#FFF" d="M3.5 15h9c.275 0 .5-.225.5-.5V5h-1.5c-.827 0-1.5-.673-1.5-1.5V1H3.5c-.275 0-.5.225-.5.5v13c0 .275.225.5.5.5z"/><path fill="#FFF" d="M13 4v-.086a.496.496 0 00-.146-.353L11 1.707V3.5c0 .275.225.5.5.5H13z"/><path opacity=".64" fill="#605E5C" d="M13.56 2.853L11.146.44a1.51 1.51 0 00-1.06-.44H3.5C2.673 0 2 .673 2 1.5v13c0 .827.673 1.5 1.5 1.5h9c.827 0 1.5-.673 1.5-1.5V3.914c0-.4-.156-.777-.44-1.06zm-.707.708c.095.094.147.22.147.353V4h-1.5a.501.501 0 01-.5-.5V1.707l1.854 1.854zM12.5 15h-9a.501.501 0 01-.5-.5v-13c0-.275.225-.5.5-.5H10v2.5c0 .827.673 1.5 1.5 1.5H13v9.5c0 .275-.225.5-.5.5z"/><path fill="none" stroke="#B4B0AD" stroke-linejoin="round" stroke-miterlimit="10" d="M11.31 9.4l-.734-.06a.051.051 0 01-.045-.038 2.606 2.606 0 00-.248-.597.051.051 0 01.005-.06l.476-.562a.207.207 0 00-.012-.28l-.555-.555a.207.207 0 00-.28-.012l-.563.476a.051.051 0 01-.058.005 2.607 2.607 0 00-.6-.248.047.047 0 01-.035-.042l-.062-.738a.206.206 0 00-.207-.189h-.784a.207.207 0 00-.207.19l-.061.734a.051.051 0 01-.038.045 2.6 2.6 0 00-.599.249.048.048 0 01-.055-.004l-.566-.479a.206.206 0 00-.28.013l-.554.555a.207.207 0 00-.012.28l.476.563a.05.05 0 01.005.058 2.62 2.62 0 00-.248.598.051.051 0 01-.045.038l-.734.06a.207.207 0 00-.19.207v.786c0 .107.083.197.19.206l.734.061a.05.05 0 01.045.038c.058.211.142.411.248.597a.051.051 0 01-.005.06l-.476.562a.207.207 0 00.012.28l.555.555a.207.207 0 00.28.012l.563-.476a.051.051 0 01.059-.005c.186.106.387.19.599.248.02.006.034.021.036.042l.061.738a.206.206 0 00.207.189h.785a.207.207 0 00.206-.19l.061-.734a.051.051 0 01.038-.045c.212-.058.412-.143.599-.249.018-.01.039-.01.055.004l.566.479c.082.07.203.064.28-.013l.554-.555a.207.207 0 00.012-.28l-.476-.563a.051.051 0 01-.005-.059c.106-.186.19-.386.248-.597a.051.051 0 01.045-.038l.734-.06a.207.207 0 00.19-.208v-.785a.207.207 0 00-.19-.206z"/><circle fill="none" stroke="#B4B0AD" stroke-linecap="round" stroke-linejoin="round" stroke-miterlimit="10" cx="8" cy="10" r=".5"/></svg>