<svg xmlns="http://www.w3.org/2000/svg" viewBox="0 0 16 16"><path fill="#FFF" d="M14 2v11a1 1 0 01-1 1H7v1h7.8a.2.2 0 00.2-.2V2.726l-1.18-1.042-.193.316H14z"/><path fill="#FFF" d="M5 3h8v10H5z"/><path opacity=".64" fill="#605E5C" d="M15 3v12H7v-1h6a1 1 0 001-1V2H4v11a1 1 0 001 1h1v1a1 1 0 001 1h8a1 1 0 001-1V3h-1zM5 3h8v10h.001H5V3z"/><path fill="#185ABD" d="M1 13h7a1 1 0 001-1V5a1 1 0 00-1-1H1a1 1 0 00-1 1v7a1 1 0 001 1z"/><path fill="#FFF" d="M4.23 11L2.015 6h.953l1.546 3.565L6.015 6H7l-2.223 5z"/><path fill="#41A5EE" d="M14 .097A.991.991 0 0013.586 0H5a1 1 0 00-1 1v2h10V2l.5-.5V.75L14 .097z"/><path fill="#2B7CD3" d="M16 4V2.414a1 1 0 00-.293-.707L14.293.293A.997.997 0 0014 .097V2l2 2z"/><path fill="#185ABD" d="M10.5 11H10v-1h.5a.5.5 0 00.5-.5v-3h1v3a1.5 1.5 0 01-1.5 1.5z"/><path fill="#103F91" d="M10 6.5L11.5 5l1.499 1.5-1.5 1.5z"/></svg>