<svg xmlns="http://www.w3.org/2000/svg" viewBox="0 0 16 16"><path fill="#FFF" d="M14 2v11a1 1 0 01-1 1H7v1h7.8a.2.2 0 00.2-.2V2.726l-1.18-1.042-.193.316H14z"/><path fill="#FFF" d="M5 3h8v10H5z"/><path opacity=".64" fill="#605E5C" d="M15 3v12H7v-1h6a1 1 0 001-1V2H4v11a1 1 0 001 1h1v1a1 1 0 001 1h8a1 1 0 001-1V3h-1zM5 3h8v10h.001H5V3z"/><path fill="#33C481" d="M14 .097A.991.991 0 0013.586 0H5a1 1 0 00-1 1v2h10V2l.5-.5V.75L14 .097z"/><path fill="#21A366" d="M16 4V2.414a1 1 0 00-.293-.707L14.293.293A.997.997 0 0014 .097V2l2 2z"/><path fill="#33C481" d="M11.5 6h-1a.5.5 0 100 1h1a.5.5 0 100-1z"/><path fill="#21A366" d="M11.5 8h-1a.5.5 0 100 1h1a.5.5 0 100-1z"/><path fill="#134A2C" d="M11.5 10h-1a.5.5 0 100 1h1a.5.5 0 100-1z"/><path fill="#107C41" d="M1 13h7a1 1 0 001-1V5a1 1 0 00-1-1H1a1 1 0 00-1 1v7a1 1 0 001 1z"/><path fill="#FFF" d="M5.412 11L2.765 6h.823l2.69 5z"/><path fill="#FFF" d="M3.631 11l2.647-5h-.823l-2.69 5z"/></svg>