<svg xmlns="http://www.w3.org/2000/svg" viewBox="0 0 16 16"><path fill="#FFF" d="M5.5 15h9c.275 0 .5-.225.5-.5V5h-1.5c-.827 0-1.5-.673-1.5-1.5V1H5.5c-.275 0-.5.225-.5.5v13c0 .275.225.5.5.5z"/><path fill="#FFF" d="M15 4v-.086a.496.496 0 00-.146-.353L13 1.707V3.5c0 .275.225.5.5.5H15z"/><path opacity=".64" fill="#605E5C" d="M15.56 2.853L13.146.44a1.51 1.51 0 00-1.06-.44H5.5C4.673 0 4 .673 4 1.5v13c0 .827.673 1.5 1.5 1.5h9c.827 0 1.5-.673 1.5-1.5V3.914c0-.4-.156-.777-.44-1.06zm-.707.708c.095.094.147.22.147.353V4h-1.5a.501.501 0 01-.5-.5V1.707l1.854 1.854zM14.5 15h-9a.501.501 0 01-.5-.5v-13c0-.275.225-.5.5-.5H12v2.5c0 .827.673 1.5 1.5 1.5H15v9.5c0 .275-.225.5-.5.5z"/><path fill="none" stroke="#BDBBB8" stroke-miterlimit="10" d="M12.5 8.5h-4a1 1 0 01-1-1v0a1 1 0 011-1h4a1 1 0 011 1v0a1 1 0 01-1 1zm0 4h-4a1 1 0 01-1-1v0a1 1 0 011-1h4a1 1 0 011 1v0a1 1 0 01-1 1z"/><path fill="#6A3889" d="M1 13h7a1 1 0 001-1V5a1 1 0 00-1-1H1a1 1 0 00-1 1v7a1 1 0 001 1z"/><path fill="#FFF" d="M4.98 11H4V6.012h.98V11z"/></svg>