<svg xmlns="http://www.w3.org/2000/svg" viewBox="0 0 16 16"><path fill="#FFB900" d="M8 4L6.586 2.586A2 2 0 005.172 2H1a1 1 0 00-1 1v10a1 1 0 001 1h14a1 1 0 001-1V5a1 1 0 00-1-1H8z"/><path fill="#FFD75E" d="M8 4L6.586 5.414A2 2 0 015.172 6H0v7a1 1 0 001 1h14a1 1 0 001-1V5a1 1 0 00-1-1H8z"/><linearGradient id="a" gradientUnits="userSpaceOnUse" x1="8" y1="4" x2="8" y2="14"><stop offset="0" stop-color="#fff" stop-opacity="0"/><stop offset=".999" stop-color="#ffd75e" stop-opacity=".3"/></linearGradient><path fill="url(#a)" d="M8 4L6.586 5.414A2 2 0 015.172 6H0v7a1 1 0 001 1h14a1 1 0 001-1V5a1 1 0 00-1-1H8z"/><path fill="#E67628" d="M1 13.5c-.373 0-.71-.142-.973-.367A.988.988 0 001 14h14c.505 0 .905-.38.973-.867-.262.226-.6.367-.973.367H1z"/><path opacity=".4" fill="#FFF" d="M6.836 5.914L8.75 4H8L6.586 5.414A2 2 0 015.172 6H0v.5h5.422a2 2 0 001.414-.586z"/><path fill="#E67628" d="M1 13.5c-.373 0-.71-.142-.973-.367A.988.988 0 001 14h14c.505 0 .905-.38.973-.867-.262.226-.6.367-.973.367H1z"/><path fill="#BF5712" d="M9.75 11h-.5a.25.25 0 01-.25-.25v-1.5A.25.25 0 019.25 9h.5a.25.25 0 01.25.25v1.5a.25.25 0 01-.25.25zm2 0h-.5a.25.25 0 01-.25-.25v-1.5a.25.25 0 01.25-.25h.5a.25.25 0 01.25.25v1.5a.25.25 0 01-.25.25zm2 0h-.5a.25.25 0 01-.25-.25v-1.5a.25.25 0 01.25-.25h.5a.25.25 0 01.25.25v1.5a.25.25 0 01-.25.25zm2 0h-.5a.25.25 0 01-.25-.25v-1.5a.25.25 0 01.25-.25h.5a.25.25 0 01.25.25v1.5a.25.25 0 01-.25.25zm-8-3h-6.5a.25.25 0 00-.25.25V9h1v2H1v.75c0 .138.112.25.25.25h6.5a.25.25 0 00.25-.25v-3.5A.25.25 0 007.75 8zM7 11H5V9h2v2zM.75 11H0V9h.75a.25.25 0 01.25.25v1.5a.25.25 0 01-.25.25z"/></svg>