<svg xmlns="http://www.w3.org/2000/svg" viewBox="0 0 96 96"><path fill="#FFF" d="M11 86h74a1 1 0 001-1V11a1 1 0 00-1-1H11a1 1 0 00-1 1v74a1 1 0 001 1z"/><path opacity=".64" fill="#605E5C" d="M85 88H11c-1.654 0-3-1.346-3-3V11c0-1.654 1.346-3 3-3h74c1.654 0 3 1.346 3 3v74c0 1.654-1.346 3-3 3zM11 10a1 1 0 00-1 1v74a1 1 0 001 1h74a1 1 0 001-1V11a1 1 0 00-1-1H11z"/><circle fill="none" stroke="#69AFE5" stroke-width="2" stroke-linecap="round" stroke-linejoin="round" stroke-miterlimit="10" cx="38.5" cy="57.55" r="4.5"/><circle fill="none" stroke="#69AFE5" stroke-width="2" stroke-linecap="round" stroke-linejoin="round" stroke-miterlimit="10" cx="57.5" cy="53.55" r="4.5"/><path fill="none" stroke="#69AFE5" stroke-width="2" stroke-linecap="round" stroke-linejoin="round" stroke-miterlimit="10" d="M43 57.95V38.595l19-4.645v19.354m-18.667-8.521L62 40.116"/></svg>