<svg xmlns="http://www.w3.org/2000/svg" viewBox="0 0 96 96"><path fill="#FFF" d="M10 30h76v-8a1 1 0 00-1-1H11a1 1 0 00-1 1v8zm1 45h74a1 1 0 001-1V32H10v42a1 1 0 001 1z"/><circle fill="#C8C6C4" cx="14.5" cy="25.5" r="1.5"/><circle fill="#C8C6C4" cx="19.5" cy="25.5" r="1.5"/><circle fill="#C8C6C4" cx="24.5" cy="25.5" r="1.5"/><path fill="#EDEBE9" d="M30 75H11a1 1 0 01-1-1V32h20v43z"/><path fill="#C8C6C4" d="M24 47h-8a1 1 0 110-2h8a1 1 0 110 2zm0-6h-8a1 1 0 110-2h8a1 1 0 110 2zm0 12h-8a1 1 0 110-2h8a1 1 0 110 2zm30-6H37a1 1 0 110-2h17a1 1 0 110 2zm0-6H37a1 1 0 110-2h17a1 1 0 110 2zm0 12H37a1 1 0 110-2h17a1 1 0 110 2zm0 6H37a1 1 0 110-2h17a1 1 0 110 2zm0 6H37a1 1 0 110-2h17a1 1 0 110 2z"/><path fill="#69AFE5" d="M79 65H62a2 2 0 01-2-2V41a2 2 0 012-2h17a2 2 0 012 2v22a2 2 0 01-2 2z"/><path opacity=".64" fill="#605E5C" d="M85 19H11c-1.654 0-3 1.346-3 3v52c0 1.654 1.346 3 3 3h74c1.654 0 3-1.346 3-3V22c0-1.654-1.346-3-3-3zm-74 2h74a1 1 0 011 1v8H10v-8a1 1 0 011-1zm74 54H11a1 1 0 01-1-1V32h76v42a1 1 0 01-1 1z"/></svg>