<svg xmlns="http://www.w3.org/2000/svg" viewBox="0 0 96 96"><path fill="#FFF" d="M11 86h74a1 1 0 001-1V11a1 1 0 00-1-1H11a1 1 0 00-1 1v74a1 1 0 001 1z"/><path opacity=".64" fill="#605E5C" d="M85 88H11c-1.654 0-3-1.346-3-3V11c0-1.654 1.346-3 3-3h74c1.654 0 3 1.346 3 3v74c0 1.654-1.346 3-3 3zM11 10a1 1 0 00-1 1v74a1 1 0 001 1h74a1 1 0 001-1V11a1 1 0 00-1-1H11z"/><path fill="#949494" d="M33.4 25c.325 0 .6.275.6.6v7.8c0 .325-.275.6-.6.6h-7.8a.608.608 0 01-.6-.6v-7.8c0-.325.275-.6.6-.6h7.8m0-2h-7.8c-1.43 0-2.6 1.17-2.6 2.6v7.8c0 1.43 1.17 2.6 2.6 2.6h7.8c1.43 0 2.6-1.17 2.6-2.6v-7.8c0-1.43-1.17-2.6-2.6-2.6z"/><path fill="#1E8BCD" d="M68.317 73h-18.6a4.664 4.664 0 01-4.65-4.65v-18.6a4.664 4.664 0 014.65-4.65h18.6a4.664 4.664 0 014.65 4.65v18.6a4.664 4.664 0 01-4.65 4.65z"/><path fill="#949494" d="M29.974 61.618V38h-1.948v23.618a5.361 5.361 0 005.355 5.356H43v-1.948h-9.619a3.412 3.412 0 01-3.407-3.408zM61.619 28.026H38v1.948h23.619a3.412 3.412 0 013.407 3.408V43h1.948v-9.618a5.361 5.361 0 00-5.355-5.356z"/></svg>