<svg xmlns="http://www.w3.org/2000/svg" viewBox="0 0 96 96"><path fill="#FFF" d="M19 88h58a1 1 0 001-1V28H61c-1.654 0-3-1.346-3-3V8H19a1 1 0 00-1 1v78a1 1 0 001 1z"/><path fill="#FFF" d="M77.586 26L60 8.414V25a1 1 0 001 1h16.586z"/><path opacity=".64" fill="#605E5C" d="M79.121 24.707L61.293 6.879A2.978 2.978 0 0059.172 6H19c-1.654 0-3 1.346-3 3v78c0 1.654 1.346 3 3 3h58c1.654 0 3-1.346 3-3V26.828c0-.8-.313-1.554-.879-2.121zM60 8.414L77.586 26H61a1 1 0 01-1-1V8.414zM77 88H19a1 1 0 01-1-1V9a1 1 0 011-1h39v17c0 1.654 1.346 3 3 3h17v59a1 1 0 01-1 1z"/></svg>