<svg xmlns="http://www.w3.org/2000/svg" xmlns:xlink="http://www.w3.org/1999/xlink" viewBox="0 0 96 96"><path fill="#FFB900" d="M45 24l-3.95-3.95A7 7 0 0036.1 18H10a4 4 0 00-4 4v52a4 4 0 004 4h76a4 4 0 004-4V28a4 4 0 00-4-4H45z"/><path fill="#FFD75E" d="M45 24l-3.95 3.95A7 7 0 0136.1 30H6v44a4 4 0 004 4h76a4 4 0 004-4V28a4 4 0 00-4-4H45z"/><linearGradient id="a" gradientUnits="userSpaceOnUse" x1="48" y1="24" x2="48" y2="78"><stop offset="0" stop-color="#fff" stop-opacity="0"/><stop offset=".999" stop-color="#ffd75e" stop-opacity=".3"/></linearGradient><path fill="url(#a)" d="M45 24l-3.95 3.95A7 7 0 0136.1 30H6v44a4 4 0 004 4h76a4 4 0 004-4V28a4 4 0 00-4-4H45z"/><path fill="#E67628" d="M10 78h76c1.309 0 2.47-.628 3.2-1.6l-.355.178a3.998 3.998 0 01-1.79.422H8.948c-.62 0-1.23-.144-1.785-.42l-.364-.182A3.994 3.994 0 0010 78z"/><path opacity=".4" fill="#FFF" d="M41.697 28.803L46.5 24H45l-3.95 3.95A7 7 0 0136.1 30H6v1h30.393a7.5 7.5 0 005.304-2.197z"/><g><image overflow="visible" opacity=".25" width="111" height="78" xlink:href="659E2160E75F440A.png" transform="matrix(.24 0 0 .24 1.76 69.08)"/><path fill="#FFF" d="M18.6 70h-7.162C5.935 70 3 73.73 3 78c0 4.412 2.935 8 8.438 8H18.6c5.707 0 8.4-3.588 8.4-8 0-4.23-2.925-8-8.4-8z"/></g><g><path fill="none" stroke="#005A9E" stroke-width="2" stroke-linecap="round" stroke-miterlimit="10" d="M12 78h6"/><path fill="none" stroke="#005A9E" stroke-width="2" stroke-linecap="round" stroke-linejoin="round" stroke-miterlimit="10" d="M17 83h1.255C21.61 83 24 80.978 24 78.062v0C24 75.145 21.691 73 18.255 73H17M13.02 73h-1.258C8.398 73 6 75.022 6 77.938v0C6 80.854 8.316 83 11.762 83h1.259"/></g></svg>