<svg xmlns="http://www.w3.org/2000/svg" viewBox="0 0 96 96"><path fill="#FFF" d="M78 88H18V8h42l18 18z"/><path fill="#949494" d="M60.001 6H16v84h64V26L60.001 6zM60 9l17 17H60V9zm18 79H18V8h40v20h20v60z"/><path fill="#C8C8C8" d="M30 36h42v2H30zM30 42h42v2H30zM30 48h36v2H30zM30 54h36v2H30zM30 60h30v2H30zM30 66h30v2H30zM30 72h42v2H30zM30 78h42v2H30z"/><path fill="#69AFE5" d="M24 36h2v2h-2zM24 42h2v2h-2zM24 48h2v2h-2zM24 54h2v2h-2zM24 60h2v2h-2zM24 66h2v2h-2zM24 72h2v2h-2zM24 78h2v2h-2z"/><linearGradient id="a" gradientUnits="userSpaceOnUse" x1="9.173" y1="11.728" x2="76.979" y2="92.535"><stop offset="0" stop-color="#fff" stop-opacity="0"/><stop offset=".226" stop-color="#fcfcfc" stop-opacity=".023"/><stop offset=".363" stop-color="#f4f4f4" stop-opacity=".036"/><stop offset=".475" stop-color="#e6e6e6" stop-opacity=".048"/><stop offset=".574" stop-color="#d1d1d1" stop-opacity=".057"/><stop offset=".665" stop-color="#b7b7b7" stop-opacity=".067"/><stop offset=".75" stop-color="#979797" stop-opacity=".075"/><stop offset=".83" stop-color="#707070" stop-opacity=".083"/><stop offset=".906" stop-color="#444" stop-opacity=".091"/><stop offset=".976" stop-color="#121212" stop-opacity=".098"/><stop offset="1" stop-opacity=".1"/></linearGradient><path fill="url(#a)" d="M80 26L60 6H16v84h64V26z"/><linearGradient id="b" gradientUnits="userSpaceOnUse" x1="68" y1="33.813" x2="68" y2="28.175"><stop offset="0" stop-color="#828282" stop-opacity="0"/><stop offset=".281" stop-color="#7f7f7f" stop-opacity=".028"/><stop offset=".45" stop-color="#777" stop-opacity=".045"/><stop offset=".59" stop-color="#696969" stop-opacity=".059"/><stop offset=".713" stop-color="#545454" stop-opacity=".071"/><stop offset=".826" stop-color="#3a3a3a" stop-opacity=".083"/><stop offset=".929" stop-color="#1a1a1a" stop-opacity=".093"/><stop offset="1" stop-opacity=".1"/></linearGradient><path fill="url(#b)" d="M58 28h20v6H58z"/><linearGradient id="c" gradientUnits="userSpaceOnUse" x1="54.54" y1="24.46" x2="66.472" y2="12.528"><stop offset="0" stop-color="#fff" stop-opacity="0"/><stop offset=".854" stop-color="#fff" stop-opacity=".213"/><stop offset="1" stop-color="#fff" stop-opacity=".25"/></linearGradient><path fill="url(#c)" d="M16 6v2h42v20h20v28h2V26L60 6z"/></svg>