<svg xmlns="http://www.w3.org/2000/svg" viewBox="0 0 96 96"><path opacity=".64" fill="#605E5C" d="M85 16H27c-1.654 0-3 1.291-3 2.879V77.12c0 1.59 1.346 2.88 3 2.88h58c1.654 0 3-1.291 3-2.879V18.88c0-1.59-1.346-2.88-3-2.88zm-58 2h58c.552 0 1 .395 1 .879V26H26v-7.121c0-.485.448-.879 1-.879zm58 60H27c-.552 0-1-.395-1-.879V28h60v49.121c0 .485-.448.879-1 .879z"/><path fill="#FFF" d="M26 26h60v-7.121c0-.485-.448-.879-1-.879H27c-.552 0-1 .395-1 .879V26zm1 52h58c.552 0 1-.395 1-.879V28H26v49.121c0 .485.448.879 1 .879z"/><path fill="#C8C6C4" d="M79 70H46v-2h33a1 1 0 110 2zm0-6H46v-2h33a1 1 0 110 2z"/><circle fill="#C8C6C4" cx="30.5" cy="22.5" r="1.5"/><circle fill="#C8C6C4" cx="35.5" cy="22.5" r="1.5"/><circle fill="#C8C6C4" cx="40.5" cy="22.5" r="1.5"/><path fill="none" stroke="#C8C6C4" stroke-width="2" stroke-miterlimit="10" d="M52 50l8-8m6 0l6 6"/><circle fill="none" stroke="#C8C6C4" stroke-width="2" stroke-miterlimit="10" cx="49.202" cy="52.798" r="4.202"/><circle fill="none" stroke="#C8C6C4" stroke-width="2" stroke-miterlimit="10" cx="75.222" cy="51.107" r="4.202"/><circle fill="none" stroke="#C8C6C4" stroke-width="2" stroke-miterlimit="10" cx="63.067" cy="39.413" r="4.202"/><path fill="#F2C80F" d="M12 74h32a4 4 0 004-4V38a4 4 0 00-4-4H12a4 4 0 00-4 4v32a4 4 0 004 4z"/><path fill="#333" d="M35 64c-.55 0-1-.45-1-1V45c0-.55.45-1 1-1s1 .45 1 1v18c0 .55-.45 1-1 1zm-5 0c-.55 0-1-.45-1-1V52c0-.55.45-1 1-1s1 .45 1 1v11c0 .55-.45 1-1 1zm-5 0c-.55 0-1-.45-1-1V48.81c0-.55.45-1 1-1s1 .45 1 1V63c0 .55-.45 1-1 1zm-5 0c-.55 0-1-.45-1-1v-5.619c0-.55.45-1 1-1s1 .45 1 1V63c0 .55-.45 1-1 1z"/></svg>