<svg xmlns="http://www.w3.org/2000/svg" viewBox="0 0 96 96"><path fill="#FFF" d="M11 75h74a1 1 0 001-1V41H69c-1.654 0-3-1.346-3-3V21H11a1 1 0 00-1 1v52a1 1 0 001 1z"/><path fill="#FFF" d="M85.586 39L68 21.414V38a1 1 0 001 1h16.586z"/><path fill="#217346" d="M28 44H17a1 1 0 110-2h11a1 1 0 110 2zm0-6H17a1 1 0 110-2h11a1 1 0 110 2zm0 12H17a1 1 0 110-2h11a1 1 0 110 2zm0 6H17a1 1 0 110-2h11a1 1 0 110 2zm0 6H17a1 1 0 110-2h11a1 1 0 110 2zm0 6H17a1 1 0 110-2h11a1 1 0 110 2z"/><path fill="#C8C6C4" d="M45 44H34a1 1 0 110-2h11a1 1 0 110 2zm0-6H34a1 1 0 110-2h11a1 1 0 110 2zm0 12H34a1 1 0 110-2h11a1 1 0 110 2zm0 6H34a1 1 0 110-2h11a1 1 0 110 2zm0 6H34a1 1 0 110-2h11a1 1 0 110 2zm0 6H34a1 1 0 110-2h11a1 1 0 110 2zm17-24H51a1 1 0 110-2h11a1 1 0 110 2zm0-6H51a1 1 0 110-2h11a1 1 0 110 2zm0 12H51a1 1 0 110-2h11a1 1 0 110 2zm0 6H51a1 1 0 110-2h11a1 1 0 110 2zm0 6H51a1 1 0 110-2h11a1 1 0 110 2zm0 6H51a1 1 0 110-2h11a1 1 0 110 2zm17-18H68a1 1 0 110-2h11a1 1 0 110 2zm0 6H68a1 1 0 110-2h11a1 1 0 110 2zm0 6H68a1 1 0 110-2h11a1 1 0 110 2zm0 6H68a1 1 0 110-2h11a1 1 0 110 2z"/><path opacity=".64" fill="#605E5C" d="M87.121 37.707L69.293 19.88a2.979 2.979 0 00-2.121-.88H11c-1.654 0-3 1.346-3 3v52c0 1.654 1.346 3 3 3h74c1.654 0 3-1.346 3-3V39.828c0-.8-.313-1.554-.879-2.12zM68 21.414L85.586 39H69a1 1 0 01-1-1V21.414zM85 75H11a1 1 0 01-1-1V22a1 1 0 011-1h55v17c0 1.654 1.346 3 3 3h17v33a1 1 0 01-1 1z"/></svg>