<svg xmlns="http://www.w3.org/2000/svg" viewBox="0 0 32 32"><path fill="#FFF" d="M26 29H6V3h15l5 5z"/><path fill="#949494" d="M21 2H5v28h22V8l-6-6zm0 1.5L25.5 8H21V3.5zM26 29H6V3h14v6h6v20z"/><path fill="#C8C8C8" d="M10 11h14v1H10zM10 13h14v1H10zM10 15h12v1H10zM10 17h12v1H10zM10 19h10v1H10zM10 21h10v1H10zM10 23h14v1H10zM10 25h14v1H10z"/><path fill="#69AFE5" d="M8 11h1v1H8zM8 13h1v1H8zM8 15h1v1H8zM8 17h1v1H8zM8 19h1v1H8zM8 21h1v1H8zM8 23h1v1H8zM8 25h1v1H8z"/><linearGradient id="a" gradientUnits="userSpaceOnUse" x1="3.084" y1="3.607" x2="25.961" y2="30.872"><stop offset="0" stop-color="#fff" stop-opacity="0"/><stop offset=".226" stop-color="#fcfcfc" stop-opacity=".023"/><stop offset=".363" stop-color="#f4f4f4" stop-opacity=".036"/><stop offset=".475" stop-color="#e6e6e6" stop-opacity=".048"/><stop offset=".574" stop-color="#d1d1d1" stop-opacity=".057"/><stop offset=".665" stop-color="#b7b7b7" stop-opacity=".067"/><stop offset=".75" stop-color="#979797" stop-opacity=".075"/><stop offset=".83" stop-color="#707070" stop-opacity=".083"/><stop offset=".906" stop-color="#444" stop-opacity=".091"/><stop offset=".976" stop-color="#121212" stop-opacity=".098"/><stop offset="1" stop-opacity=".1"/></linearGradient><path fill="url(#a)" d="M27 8l-6-6H5v28h22V8z"/><linearGradient id="b" gradientUnits="userSpaceOnUse" x1="20.148" y1="9.102" x2="24.114" y2="5.136"><stop offset="0" stop-color="#fff" stop-opacity="0"/><stop offset=".854" stop-color="#fff" stop-opacity=".213"/><stop offset="1" stop-color="#fff" stop-opacity=".25"/></linearGradient><path fill="url(#b)" d="M5 2v1h15v6h6v15.5h1V8l-6-6z"/><linearGradient id="c" gradientUnits="userSpaceOnUse" x1="23" y1="10.938" x2="23" y2="9.058"><stop offset="0" stop-color="#828282" stop-opacity="0"/><stop offset=".281" stop-color="#7f7f7f" stop-opacity=".028"/><stop offset=".45" stop-color="#777" stop-opacity=".045"/><stop offset=".59" stop-color="#696969" stop-opacity=".059"/><stop offset=".713" stop-color="#545454" stop-opacity=".071"/><stop offset=".826" stop-color="#3a3a3a" stop-opacity=".083"/><stop offset=".929" stop-color="#1a1a1a" stop-opacity=".093"/><stop offset="1" stop-opacity=".1"/></linearGradient><path fill="url(#c)" d="M20 9h6v2h-6z"/></svg>