<svg xmlns="http://www.w3.org/2000/svg" viewBox="0 0 32 32"><path fill="#FFB900" d="M15 8l-1.268-1.268A2.5 2.5 0 0011.964 6H3.5c-.828 0-1.48.672-1.48 1.5L2 24.5A1.5 1.5 0 003.5 26h25a1.5 1.5 0 001.5-1.5v-15A1.5 1.5 0 0028.5 8H15z"/><path fill="#FFD75E" d="M15 8l-1.268 1.268a2.5 2.5 0 01-1.768.732H2v14.5A1.5 1.5 0 003.5 26h25a1.5 1.5 0 001.5-1.5v-15A1.5 1.5 0 0028.5 8H15z"/><linearGradient id="a" gradientUnits="userSpaceOnUse" x1="16" y1="8" x2="16" y2="26"><stop offset="0" stop-color="#fff" stop-opacity="0"/><stop offset=".999" stop-color="#ffd75e" stop-opacity=".3"/></linearGradient><path fill="url(#a)" d="M15 8l-1.268 1.268a2.5 2.5 0 01-1.768.732H2v14.5A1.5 1.5 0 003.5 26h25a1.5 1.5 0 001.5-1.5v-15A1.5 1.5 0 0028.5 8H15z"/><path fill="#E67628" d="M3 25.5c-.286 0-.55-.084-.777-.223.263.432.734.723 1.277.723h25c.543 0 1.014-.291 1.277-.723A1.488 1.488 0 0129 25.5H3z"/><path opacity=".4" fill="#FFF" d="M14.129 9.621L15.75 8H15l-1.268 1.268a2.5 2.5 0 01-1.768.732H2v.5h10.007a3 3 0 002.122-.879z"/><path fill="#E67628" d="M3 25.5c-.286 0-.55-.084-.777-.223.263.432.734.723 1.277.723h25c.543 0 1.014-.291 1.277-.723A1.488 1.488 0 0129 25.5H3z"/><path fill="#BF5712" d="M22.438 20.383c.239.13.456.289.648.476s.356.395.492.621.24.47.313.727S24 22.73 24 23h-1c0-.276-.052-.535-.156-.777a2.018 2.018 0 00-1.067-1.067c-.242-.104-.5-.156-.777-.156s-.535.052-.777.156a2.032 2.032 0 00-1.067 1.067A1.941 1.941 0 0019 23h-1c0-.27.036-.535.11-.793s.176-.5.312-.727.3-.433.492-.62.41-.347.648-.477A1.987 1.987 0 0119 19c0-.276.052-.535.156-.777a2.018 2.018 0 011.067-1.067c.242-.104.5-.156.777-.156s.535.052.777.156a2.032 2.032 0 011.067 1.067c.104.242.156.501.156.777a1.986 1.986 0 01-.563 1.383zM21 20.15c.162 0 .311-.03.45-.09a1.161 1.161 0 00.611-.611c.059-.137.089-.287.089-.449a1.121 1.121 0 00-.337-.813A1.122 1.122 0 0021 17.85a1.122 1.122 0 00-.813.337 1.122 1.122 0 00-.337.813 1.12 1.12 0 00.337.813 1.14 1.14 0 00.813.337z"/><path fill="#BF5712" d="M26.438 17.383c.239.13.456.289.648.476s.356.395.492.621.24.47.313.727S28 19.73 28 20h-1c0-.276-.052-.535-.156-.777a2.018 2.018 0 00-1.067-1.067c-.242-.104-.5-.156-.777-.156s-.535.052-.777.156a2.032 2.032 0 00-1.067 1.067A1.941 1.941 0 0023 20h-1c0-.27.036-.535.11-.793s.176-.5.312-.727.3-.433.492-.62.41-.347.648-.477A1.987 1.987 0 0123 16c0-.276.052-.535.156-.777a2.018 2.018 0 011.067-1.067c.242-.104.5-.156.777-.156s.535.052.777.156a2.032 2.032 0 011.067 1.067c.104.242.156.501.156.777a1.986 1.986 0 01-.563 1.383zM25 17.15c.162 0 .311-.03.45-.09a1.161 1.161 0 00.611-.611c.059-.137.089-.287.089-.449a1.121 1.121 0 00-.337-.813A1.122 1.122 0 0025 14.85a1.122 1.122 0 00-.813.337 1.122 1.122 0 00-.337.813 1.12 1.12 0 00.337.813 1.14 1.14 0 00.813.337z"/></svg>