<svg xmlns="http://www.w3.org/2000/svg" viewBox="0 0 32 32"><path fill="#FFF" d="M4.5 28h23c.275 0 .5-.225.5-.5v-23c0-.275-.225-.5-.5-.5h-23c-.275 0-.5.225-.5.5v23c0 .275.225.5.5.5z"/><path opacity=".64" fill="#605E5C" d="M27.5 29h-23c-.827 0-1.5-.673-1.5-1.5v-23C3 3.673 3.673 3 4.5 3h23c.827 0 1.5.673 1.5 1.5v23c0 .827-.673 1.5-1.5 1.5zM4.5 4a.5.5 0 00-.5.5v23a.5.5 0 00.5.5h23a.5.5 0 00.5-.5v-23a.5.5 0 00-.5-.5h-23z"/><path fill="none" d="M3 3h26v26H3z"/><path fill-rule="evenodd" clip-rule="evenodd" fill="#BC1948" d="M12.5 16v5.311c0 .545.653.873 1.149.577l9.069-5.418A.553.553 0 0023 16H12.5z"/><path fill-rule="evenodd" clip-rule="evenodd" fill="#E8467C" d="M12.5 16v-5.311c0-.545.653-.874 1.149-.578l9.069 5.419c.186.112.28.29.282.47H12.5z"/><path fill-rule="evenodd" clip-rule="evenodd" fill="#8C193F" d="M11.108 12.565l4.712 3.099c.24.157.24.514 0 .672l-4.712 3.099a.394.394 0 01-.608-.336V12.9c0-.317.346-.509.608-.336"/></svg>