<svg xmlns="http://www.w3.org/2000/svg" viewBox="0 0 20 20"><path fill="#FFF" d="M3.5 17h13c.275 0 .5-.225.5-.5v-13c0-.275-.225-.5-.5-.5h-13c-.275 0-.5.225-.5.5v13c0 .275.225.5.5.5z"/><path opacity=".64" fill="#605E5C" d="M16.5 18h-13c-.827 0-1.5-.673-1.5-1.5v-13C2 2.673 2.673 2 3.5 2h13c.827 0 1.5.673 1.5 1.5v13c0 .827-.673 1.5-1.5 1.5zM3.5 3a.5.5 0 00-.5.5v13a.5.5 0 00.5.5h13a.5.5 0 00.5-.5v-13a.5.5 0 00-.5-.5h-13z"/><path fill="#949494" d="M12 8h1V7c0-.55-.45-1-1-1H9v1h3v1zM8 12H7V9H6v3c0 .55.45 1 1 1h1v-1zM7 6v1H6V6h1m0-1H6c-.55 0-1 .45-1 1v1c0 .55.45 1 1 1h1c.55 0 1-.45 1-1V6c0-.55-.45-1-1-1z"/><path fill="#1E8BCD" d="M10 9h4c.55 0 1 .45 1 1v4c0 .55-.45 1-1 1h-4c-.55 0-1-.45-1-1v-4c0-.55.45-1 1-1z"/></svg>