<svg xmlns="http://www.w3.org/2000/svg" viewBox="0 0 20 20"><path fill="#FFF" d="M6 3h10v13H6z"/><path fill="#FFF" d="M18 3.733l-1-.841V16a1 1 0 01-1 1H8v1h10V3.733z"/><path opacity=".64" fill="#605E5C" d="M18 4v14H8v-1h8a1 1 0 001-1V2H5v14a1 1 0 001 1h1v1a1 1 0 001 1h10a1 1 0 001-1V4h-1zM6 3h10v13h.001l-.001.5V16H6V3z"/><path fill="#FF8F6B" d="M17 1.097A.991.991 0 0016.586 1H6a1 1 0 00-1 1v2h12V3l.5-.5v-.75l-.5-.653z"/><path fill="#ED6C47" d="M19 5V3.414a1 1 0 00-.293-.707l-1.414-1.414A.997.997 0 0017 1.097V3l2 2zm-4.05 5H13l-.5-1-.5 1v2.95A2.5 2.5 0 0014.95 10z"/><path fill="#FF8F6B" d="M12.5 8c-.172 0-.338.021-.5.055V10h1V8.05a2.51 2.51 0 00-.5-.05z"/><path fill="#FFC7B5" d="M14 9h2a2.567 2.567 0 00-2-2v2z"/><path fill="#C43E1C" d="M2 16h8a1 1 0 001-1V7a1 1 0 00-1-1H2a1 1 0 00-1 1v8a1 1 0 001 1z"/><path fill="#F9F7F7" d="M6.08 8c.62 0 1.096.16 1.425.481.33.321.495.786.495 1.393 0 .39-.081.738-.245 1.042a1.743 1.743 0 01-.696.71 2.1 2.1 0 01-1.044.253H5V14h-.988V8H6.08zM5 11h.899C6.406 11 7 10.898 7 10c0-1.008-.641-1.012-1.069-1.012H5V11z"/></svg>