<svg xmlns="http://www.w3.org/2000/svg" viewBox="0 0 20 20"><path fill="#FFF" d="M2 4l-.004 12H18l.003-8H15.5A1.5 1.5 0 0114 6.5V4H2z"/><path fill="#FFF" d="M17.789 7L15 4.633V6.5c0 .275.225.5.5.5h2.289z"/><path fill="#217346" d="M6.5 9h-2a.5.5 0 010-1h2a.5.5 0 010 1zm0 2h-2a.5.5 0 010-1h2a.5.5 0 010 1zm0 2h-2a.5.5 0 010-1h2a.5.5 0 010 1z"/><path fill="#C8C6C4" d="M10.5 9h-2a.5.5 0 010-1h2a.5.5 0 010 1zm0 2h-2a.5.5 0 010-1h2a.5.5 0 010 1zm0 2h-2a.5.5 0 010-1h2a.5.5 0 010 1zm4-2h-2a.5.5 0 010-1h2a.5.5 0 010 1zm0 2h-2a.5.5 0 010-1h2a.5.5 0 010 1z"/><path opacity=".64" fill="#605E5C" d="M18.678 6.458l-3.707-3.21A1.012 1.012 0 0014.308 3H1.997C1.447 3 1 3.42 1 3.935v12.13c0 .515.447.935.997.935h16.006c.55 0 .997-.42.997-.935V7.163a.933.933 0 00-.322-.705zM15 4.633L17.789 7H15.5a.501.501 0 01-.5-.5V4.633zM2 16V4h12v2.5A1.5 1.5 0 0015.5 8H18v8H2z"/></svg>