<svg xmlns="http://www.w3.org/2000/svg" viewBox="0 0 20 20"><path fill="#FFF" d="M16 7h-2.5c-.827 0-1.5-.673-1.5-1.5V2H4v16h12V7z"/><path fill="#FFF" d="M16 6v-.293l-3-3V5.5c0 .275.225.5.5.5H16z"/><path opacity=".64" fill="#605E5C" d="M16.707 5L13 1.293A1 1 0 0012.293 1H4a1 1 0 00-1 1v16a1 1 0 001 1h12a1 1 0 001-1V5.707A1 1 0 0016.707 5zM16 5.707V6h-2.5a.501.501 0 01-.5-.5V2.707l3 3zM4 17.8V2.2c0-.11.09-.2.2-.2H12v3.5A1.5 1.5 0 0013.5 7H16v10.8a.2.2 0 01-.2.2H4.2a.2.2 0 01-.2-.2z"/><path fill="none" stroke="#C8C6C4" stroke-linecap="round" stroke-miterlimit="10" d="M7.5 9.5h5m-6 1v4"/><circle fill="#0078D7" cx="6.5" cy="9.5" r="1.5"/><path fill="#0078D7" d="M10.234 12.011l4.654 1.746a.173.173 0 01-.019.33l-2.226.556-.557 2.226a.173.173 0 01-.33.019l-1.745-4.654a.173.173 0 01.223-.223z"/><path fill="none" stroke="#0078D7" stroke-miterlimit="10" d="M5.5 14.5h2v2h-2zm7-6h2v2h-2z"/></svg>