<svg xmlns="http://www.w3.org/2000/svg" viewBox="0 0 20 20"><path fill="#FFF" d="M6 2h12v16H6z"/><path opacity=".64" fill="#605E5C" d="M18 19H6a1 1 0 01-1-1V2a1 1 0 011-1h12a1 1 0 011 1v16a1 1 0 01-1 1zM6 2.2v15.6c0 .11.09.2.2.2h11.6a.2.2 0 00.2-.2V2.2a.2.2 0 00-.2-.2H6.2a.2.2 0 00-.2.2z"/><path fill="#185ABD" d="M2 16h8a1 1 0 001-1V7a1 1 0 00-1-1H2a1 1 0 00-1 1v8a1 1 0 001 1z"/><path fill="#FFF" d="M5.43 14L3.014 8h1.083l1.928 4.813L7.888 8h1.148l-2.46 6z"/><path opacity=".64" fill="#C8C6C4" d="M15.5 9h-1A1.5 1.5 0 0113 7.5v-3A1.5 1.5 0 0114.5 3h1A1.5 1.5 0 0117 4.5v3A1.5 1.5 0 0115.5 9zm-1-1h1a.5.5 0 00.5-.5v-3a.5.5 0 00-.5-.5h-1a.5.5 0 00-.5.5v3a.5.5 0 00.5.5zm1 9h-1a1.5 1.5 0 01-1.5-1.5v-3a1.5 1.5 0 011.5-1.5h1a1.5 1.5 0 011.5 1.5v3a1.5 1.5 0 01-1.5 1.5zm-1-1h1a.5.5 0 00.5-.5v-3a.5.5 0 00-.5-.5h-1a.5.5 0 00-.5.5v3a.5.5 0 00.5.5zM8 5v-.5a.5.5 0 01.5-.5h1a.5.5 0 01.5.5V5c.366 0 .705.106 1 .278V4.5A1.5 1.5 0 009.5 3h-1A1.5 1.5 0 007 4.5V5h1z"/></svg>