<svg xmlns="http://www.w3.org/2000/svg" viewBox="0 0 40 40"><path fill="#FFF" d="M6.5 34h27c.275 0 .5-.225.5-.5v-27c0-.275-.225-.5-.5-.5h-27c-.275 0-.5.225-.5.5v27c0 .275.225.5.5.5z"/><path opacity=".64" fill="#605E5C" d="M33.5 35h-27c-.827 0-1.5-.673-1.5-1.5v-27C5 5.673 5.673 5 6.5 5h27c.827 0 1.5.673 1.5 1.5v27c0 .827-.673 1.5-1.5 1.5zM6.5 6a.5.5 0 00-.5.5v27a.5.5 0 00.5.5h27a.5.5 0 00.5-.5v-27a.5.5 0 00-.5-.5h-27z"/><path fill="#FFF" d="M23 19h6v5h-6zM19 24.375h5.781V29H19z"/><path fill="none" d="M10.75 10.75h18.5v18.5h-18.5z"/><path fill="#949494" d="M14.875 12c.067 0 .125.059.125.125v2.75a.128.128 0 01-.125.125h-2.75a.128.128 0 01-.125-.125v-2.75c0-.066.058-.125.125-.125h2.75m0-1h-2.75c-.619 0-1.125.506-1.125 1.125v2.75c0 .619.506 1.125 1.125 1.125h2.75c.619 0 1.125-.506 1.125-1.125v-2.75c0-.619-.506-1.125-1.125-1.125zM18 25h-3.433a.575.575 0 01-.567-.567V17h-1v7.433c0 .862.705 1.567 1.567 1.567H18v-1zM17 14h7.433c.307 0 .567.26.567.567V18h1v-3.433c0-.862-.705-1.567-1.567-1.567H17v1z"/><path fill="none" d="M10.75 10.75h18.5v18.5h-18.5z"/><path fill="#1E8BCD" d="M27.313 29h-6.625C19.759 29 19 28.24 19 27.312v-6.625c0-.928.76-1.687 1.688-1.687h6.625c.928 0 1.687.76 1.687 1.688v6.625C29 28.24 28.24 29 27.312 29z"/></svg>