<svg xmlns="http://www.w3.org/2000/svg" xmlns:xlink="http://www.w3.org/1999/xlink" viewBox="0 0 40 40"><path fill="#FFB900" d="M19 10l-2.121-2.121A3 3 0 0014.757 7H4a2 2 0 00-2 2v22a2 2 0 002 2h32a2 2 0 002-2V12a2 2 0 00-2-2H19z"/><path fill="#FFD75E" d="M19 10l-2.121 2.121a3 3 0 01-2.122.879H2v18a2 2 0 002 2h32a2 2 0 002-2V12a2 2 0 00-2-2H19z"/><linearGradient id="a" gradientUnits="userSpaceOnUse" x1="20" y1="10" x2="20" y2="33"><stop offset="0" stop-color="#fff" stop-opacity="0"/><stop offset=".999" stop-color="#ffd75e" stop-opacity=".3"/></linearGradient><path fill="url(#a)" d="M19 10l-2.121 2.121a3 3 0 01-2.122.879H2v18a2 2 0 002 2h32a2 2 0 002-2V12a2 2 0 00-2-2H19z"/><path opacity=".4" fill="#FFF" d="M16.879 12.121a3 3 0 01-2.122.879H2v1h13.05a3.5 3.5 0 002.475-1.025L20.5 10H19l-2.121 2.121z"/><path fill="#E67628" d="M4 33h32a2 2 0 001.918-1.43c-.35.277-.784.43-1.233.43H3.315a1.98 1.98 0 01-1.233-.43A2 2 0 004 33z"/><g><image overflow="visible" opacity=".25" width="90" height="61" xlink:href="89E73CC03CDC2355.png" transform="matrix(.24 0 0 .24 .12 24.64)"/><path fill="#FFF" d="M14.2 25.5H7.8c-3.987 0-6.3 2.928-6.3 6 0 2.983 2.313 6 6.3 6h6.4c4.231 0 6.3-3.054 6.3-6 0-3.035-2.165-6-6.3-6z"/></g><g fill="none" stroke="#005A9E" stroke-linecap="round" stroke-miterlimit="10"><path stroke-width="1.5" stroke-linejoin="round" d="M12.694 35.302l1.272-.01c2.565 0 4.393-1.542 4.393-3.766v0c0-2.223-1.765-3.86-4.393-3.86l-1.272.011M9.36 27.667l-1.273.01c-2.556 0-4.393 1.542-4.393 3.766v0c0 2.223 1.775 3.86 4.393 3.86l1.272-.011"/><path stroke-width="1.4" d="M8.682 31.521h4.636"/></g></svg>