<svg xmlns="http://www.w3.org/2000/svg" viewBox="0 0 40 40"><path fill="#FFF" d="M7 3h19l7 7v27H7z"/><path fill="#949494" d="M26 2H6v36h28V10l-8-8zm0 1.5l6.5 6.5H26V3.5zM33 37H7V3h18v8h8v26z"/><path fill="#C8C8C8" d="M13 32h17v1H13zM13 29h11v1H13zM13 26h11v1H13zM13 23h14v1H13zM13 20h14v1H13zM13 17h17v1H13zM13 14h17v1H13z"/><path fill="#69AFE5" d="M10 14h1v1h-1zM10 17h1v1h-1zM10 20h1v1h-1zM10 23h1v1h-1zM10 26h1v1h-1zM10 29h1v1h-1zM10 32h1v1h-1z"/><linearGradient id="a" gradientUnits="userSpaceOnUse" x1="3.383" y1="4.196" x2="32.678" y2="39.109"><stop offset="0" stop-color="#fff" stop-opacity="0"/><stop offset=".226" stop-color="#fcfcfc" stop-opacity=".023"/><stop offset=".363" stop-color="#f4f4f4" stop-opacity=".036"/><stop offset=".475" stop-color="#e6e6e6" stop-opacity=".048"/><stop offset=".574" stop-color="#d1d1d1" stop-opacity=".057"/><stop offset=".665" stop-color="#b7b7b7" stop-opacity=".067"/><stop offset=".75" stop-color="#979797" stop-opacity=".075"/><stop offset=".83" stop-color="#707070" stop-opacity=".083"/><stop offset=".906" stop-color="#444" stop-opacity=".091"/><stop offset=".976" stop-color="#121212" stop-opacity=".098"/><stop offset="1" stop-opacity=".1"/></linearGradient><path fill="url(#a)" d="M34 10l-8-8H6v36h28V10z"/><linearGradient id="b" gradientUnits="userSpaceOnUse" x1="29" y1="13.906" x2="29" y2="11.088"><stop offset="0" stop-color="#828282" stop-opacity="0"/><stop offset=".281" stop-color="#7f7f7f" stop-opacity=".028"/><stop offset=".45" stop-color="#777" stop-opacity=".045"/><stop offset=".59" stop-color="#696969" stop-opacity=".059"/><stop offset=".713" stop-color="#545454" stop-opacity=".071"/><stop offset=".826" stop-color="#3a3a3a" stop-opacity=".083"/><stop offset=".929" stop-color="#1a1a1a" stop-opacity=".093"/><stop offset="1" stop-opacity=".1"/></linearGradient><path fill="url(#b)" d="M25 11h8v3h-8z"/><linearGradient id="c" gradientUnits="userSpaceOnUse" x1="23.792" y1="9.708" x2="28.73" y2="4.77"><stop offset="0" stop-color="#fff" stop-opacity="0"/><stop offset=".854" stop-color="#fff" stop-opacity=".213"/><stop offset="1" stop-color="#fff" stop-opacity=".25"/></linearGradient><path fill="url(#c)" d="M26 2H6v1h19v8h8v14h1V10z"/></svg>