<svg xmlns="http://www.w3.org/2000/svg" viewBox="0 0 40 40"><path opacity=".64" fill="#605E5C" d="M34.574 33H11.426C10.64 33 10 32.389 10 31.638V8.362C10 7.612 10.64 7 11.426 7h23.148C35.36 7 36 7.611 36 8.362v23.276c0 .75-.64 1.362-1.426 1.362zM11.426 8c-.235 0-.426.162-.426.362v23.276c0 .2.191.362.426.362h23.148c.235 0 .426-.162.426-.362V8.362c0-.2-.191-.362-.426-.362H11.426z"/><path fill="#FFF" d="M11.426 8c-.235 0-.426.162-.426.362v23.276c0 .2.191.362.426.362h23.148c.235 0 .426-.162.426-.362V8.362c0-.2-.191-.362-.426-.362H11.426z"/><circle fill="#C8C6C4" cx="14" cy="11" r="1"/><circle fill="#C8C6C4" cx="17" cy="11" r="1"/><circle fill="#C8C6C4" cx="20" cy="11" r="1"/><path fill="#C8C6C4" d="M31.517 25H13.17c-.266 0-.482.224-.482.5s.216.5.482.5h18.347c.267 0 .483-.224.483-.5s-.216-.5-.483-.5zm0 3H13.17c-.266 0-.482.224-.482.5s.216.5.482.5h18.347c.267 0 .483-.224.483-.5s-.216-.5-.483-.5z"/><path fill="none" stroke="#C8C6C4" stroke-miterlimit="10" d="M20.875 20.125L23.5 17.5m2.771.287L28.748 20m-7.623-.29a1.712 1.712 0 11-2.25 2.58 1.712 1.712 0 012.25-2.58"/><circle fill="none" stroke="#C8C6C4" stroke-miterlimit="10" cx="30.015" cy="21" r="1.712"/><circle fill="none" stroke="#C8C6C4" stroke-miterlimit="10" cx="25.006" cy="16.979" r="1.833"/><path fill="#F2C80F" d="M5.5 30h13a1.5 1.5 0 001.5-1.5v-13a1.5 1.5 0 00-1.5-1.5h-13A1.5 1.5 0 004 15.5v13A1.5 1.5 0 005.5 30z"/><path fill="#333" d="M16.5 17a.5.5 0 00-.5.5v9a.5.5 0 001 0v-9a.5.5 0 00-.5-.5zm-3 4a.5.5 0 00-.5.5v5a.5.5 0 001 0v-5a.5.5 0 00-.5-.5zm-3-2a.5.5 0 00-.5.5v7a.5.5 0 001 0v-7a.5.5 0 00-.5-.5zm-3 4a.5.5 0 01.5.5v3a.5.5 0 01-1 0v-3a.5.5 0 01.5-.5z"/></svg>