<svg xmlns="http://www.w3.org/2000/svg" viewBox="0 0 40 40"><path fill="#FFF" d="M33.621 30.063c.21 0 .379-.155.379-.345V17h-5.606A1.407 1.407 0 0127 15.582V9.937H6.379c-.21 0-.379.155-.379.346v19.435c0 .19.17.345.379.345H33.62z"/><path fill="#FFF" d="M28.394 16h5.179L28 10.641v4.94c0 .231.177.419.394.419z"/><path opacity=".64" fill="#605E5C" d="M35 16.56c0-.353-.144-.69-.399-.933l-6.53-6.244A1.417 1.417 0 0027.1 9H6.379C5.619 9 5 9.6 5 10.337v19.326C5 30.4 5.618 31 6.379 31H33.62c.76 0 1.379-.6 1.379-1.337V16.559zm-7-5.919L33.573 16h-5.18c-.216 0-.393-.188-.393-.418v-4.94zm6 19.016c0 .189-.17.343-.379.343H6.38c-.21 0-.379-.154-.379-.343V10.343c0-.19.17-.343.379-.343H27v5.588c0 .779.625 1.412 1.394 1.412H34v12.657z"/><path fill="#C8C6C4" d="M14.5 21h-5a.5.5 0 010-1h5a.5.5 0 010 1zm0-3h-5a.5.5 0 010-1h5a.5.5 0 010 1zm0-3h-5a.5.5 0 010-1h5a.5.5 0 010 1zm0 9h-5a.5.5 0 010-1h5a.5.5 0 010 1zm0 3h-5a.5.5 0 010-1h5a.5.5 0 010 1z"/><path fill="#B7472A" d="M23 17a4 4 0 014 4h-4v-4z"/><path fill="#C8C6C4" d="M27 22a5.001 5.001 0 01-5.57 4.968c-2.286-.252-4.146-2.112-4.398-4.399A5.001 5.001 0 0122 17v5h5z"/></svg>