<svg xmlns="http://www.w3.org/2000/svg" viewBox="0 0 40 40"><path fill="#FFB900" d="M19 11l-2.121-2.121A3 3 0 0014.757 8H6c-1.105 0-1.98.895-1.98 2L4 30a2 2 0 002 2h28a2 2 0 002-2V13a2 2 0 00-2-2H19z"/><path fill="#FFD75E" d="M19 11l-2.121 2.121a3 3 0 01-2.122.879H4v16a2 2 0 002 2h28a2 2 0 002-2V13a2 2 0 00-2-2H19z"/><linearGradient id="a" gradientUnits="userSpaceOnUse" x1="20" y1="11" x2="20" y2="32"><stop offset="0" stop-color="#fff" stop-opacity="0"/><stop offset=".999" stop-color="#ffd75e" stop-opacity=".3"/></linearGradient><path fill="url(#a)" d="M19 11l-2.121 2.121a3 3 0 01-2.122.879H4v16a2 2 0 002 2h28a2 2 0 002-2V13a2 2 0 00-2-2H19z"/><path opacity=".4" fill="#FFF" d="M16.879 13.121a3 3 0 01-2.122.879H4v1h11.05a3.5 3.5 0 002.475-1.025L20.5 11H19l-2.121 2.121z"/><path fill="#E67628" d="M6 32h28a2 2 0 001.918-1.43c-.35.277-.784.43-1.233.43H5.315a1.98 1.98 0 01-1.233-.43A2 2 0 006 32z"/><path fill="#E67628" d="M6 32h28a2 2 0 001.918-1.43c-.35.277-.784.43-1.233.43H5.315a1.98 1.98 0 01-1.233-.43A2 2 0 006 32z"/><path fill="#BF5712" d="M28.438 26.383c.239.13.456.289.648.476s.356.395.492.621.24.47.313.727S30 28.73 30 29h-1c0-.276-.052-.535-.156-.777a2.018 2.018 0 00-1.067-1.067c-.242-.104-.5-.156-.777-.156s-.535.052-.777.156a2.032 2.032 0 00-1.067 1.067A1.941 1.941 0 0025 29h-1c0-.27.036-.535.11-.793s.176-.5.312-.727.3-.433.492-.62.41-.347.648-.477A1.986 1.986 0 0125 25c0-.276.052-.535.156-.777a2.018 2.018 0 011.067-1.067c.242-.104.5-.156.777-.156s.535.052.777.156a2.032 2.032 0 011.067 1.067c.104.242.156.501.156.777a1.986 1.986 0 01-.563 1.383zM27 26.15c.162 0 .311-.03.45-.09a1.161 1.161 0 00.611-.611c.059-.137.089-.287.089-.449a1.121 1.121 0 00-.337-.813A1.122 1.122 0 0027 23.85a1.122 1.122 0 00-.813.337 1.122 1.122 0 00-.337.813 1.12 1.12 0 00.337.813 1.14 1.14 0 00.813.337z"/><path fill="#BF5712" d="M32.438 23.383c.239.13.456.289.648.476s.356.395.492.621.24.47.313.727S34 25.73 34 26h-1c0-.276-.052-.535-.156-.777a2.018 2.018 0 00-1.067-1.067c-.242-.104-.5-.156-.777-.156s-.535.052-.777.156a2.032 2.032 0 00-1.067 1.067A1.941 1.941 0 0029 26h-1c0-.27.036-.535.11-.793s.176-.5.312-.727.3-.433.492-.62.41-.347.648-.477A1.986 1.986 0 0129 22c0-.276.052-.535.156-.777a2.018 2.018 0 011.067-1.067c.242-.104.5-.156.777-.156s.535.052.777.156a2.032 2.032 0 011.067 1.067c.104.242.156.501.156.777a1.986 1.986 0 01-.563 1.383zM31 23.15c.162 0 .311-.03.45-.09a1.161 1.161 0 00.611-.611c.059-.137.089-.287.089-.449a1.121 1.121 0 00-.337-.813A1.122 1.122 0 0031 20.85a1.122 1.122 0 00-.813.337 1.122 1.122 0 00-.337.813 1.12 1.12 0 00.337.813 1.14 1.14 0 00.813.337z"/></svg>