<svg xmlns="http://www.w3.org/2000/svg" viewBox="0 0 40 40"><path opacity=".64" fill="#605E5C" d="M11.496 33A3.485 3.485 0 018 29.524V8.503c-.001-.401.115-.78.398-1.063A1.49 1.49 0 019.46 7H31.5c.827 0 1.5.673 1.5 1.5V17h2.5c.133 0 .26.053.354.146a.503.503 0 01.146.355l-.032 12.012A3.504 3.504 0 0132.47 33H11.496zM9.46 8a.498.498 0 00-.5.501l.035 21.021a2.504 2.504 0 002.501 2.497h.002l20.973-.017a2.503 2.503 0 002.497-2.492L34.999 18H33v9.5a.5.5 0 11-1 0v-19c0-.275-.225-.5-.5-.5H9.46z"/><path fill="#FFF" d="M11.496 32.019h.002l20.973-.017a2.503 2.503 0 002.497-2.492L34.999 18H33v9.5a.5.5 0 11-1 0v-19c0-.275-.225-.5-.5-.5H9.46a.498.498 0 00-.5.501l.035 21.021a2.503 2.503 0 002.501 2.497z"/><path fill="#03787C" d="M5.5 30h13a1.5 1.5 0 001.5-1.5v-13a1.5 1.5 0 00-1.5-1.5h-13A1.5 1.5 0 004 15.5v13A1.5 1.5 0 005.5 30z"/><path fill="#FFF" d="M9.404 21.825a2.745 2.745 0 01-.887-.87c-.206-.335-.309-.732-.309-1.19 0-.612.192-1.125.575-1.54s.892-.725 1.527-.925c.635-.2 1.33-.3 2.087-.3 1.158 0 1.93.118 2.603.356v1.8c-.359-.207-.628-.362-1.098-.47a6.482 6.482 0 00-1.454-.162c-.602 0-1.1.097-1.494.294-.396.194-.593.472-.593.832 0 .225.084.422.25.59.168.169.393.318.677.448.283.13.706.304 1.269.52.097.031.157.054.181.067.665.252 1.198.496 1.6.731.402.237.718.531.945.884.228.353.342.797.342 1.332 0 .656-.18 1.191-.538 1.605-.359.413-.839.712-1.44.896s-1.284.277-2.05.277a11.65 11.65 0 01-1.858-.142c-.585-.094-1.224-.187-1.645-.363v-1.901c.412.283 1.057.466 1.663.633a6.391 6.391 0 001.68.249c.674 0 1.181-.1 1.524-.3.34-.2.512-.482.512-.846a.871.871 0 00-.288-.648c-.191-.184-.456-.355-.792-.512a26.778 26.778 0 00-1.494-.62c-.611-.239-1.109-.48-1.495-.725z"/><path fill="#03787C" d="M28.5 26H22v1h6.5a.5.5 0 000-1z"/><path fill="#1A9BA1" d="M28.5 23H22v1h6.5a.5.5 0 000-1z"/><path fill="#37C6D0" d="M22 21h6a1 1 0 001-1v-2a1 1 0 00-1-1h-6v4z"/></svg>