<svg xmlns="http://www.w3.org/2000/svg" viewBox="0 0 40 40"><path fill="#FFF" d="M6.5 34h27c.275 0 .5-.225.5-.5v-27c0-.275-.225-.5-.5-.5h-27c-.275 0-.5.225-.5.5v27c0 .275.225.5.5.5z"/><path fill="none" d="M6 6h28v28H6z"/><path fill-rule="evenodd" clip-rule="evenodd" fill="#BC1948" d="M16 20v6.197a.807.807 0 001.245.673l9.824-6.322a.655.655 0 00.306-.548H16z"/><path fill-rule="evenodd" clip-rule="evenodd" fill="#E8467C" d="M16 20v-6.197a.807.807 0 011.245-.673l9.824 6.322c.202.13.304.338.306.548H16z"/><path fill-rule="evenodd" clip-rule="evenodd" fill="#8C193F" d="M13.677 16.136l5.248 3.486a.457.457 0 010 .756l-5.248 3.486c-.292.194-.677-.02-.677-.378v-6.972c0-.357.385-.572.677-.378"/><path opacity=".64" fill="#605E5C" d="M33.5 35h-27c-.827 0-1.5-.673-1.5-1.5v-27C5 5.673 5.673 5 6.5 5h27c.827 0 1.5.673 1.5 1.5v27c0 .827-.673 1.5-1.5 1.5zM6.5 6a.5.5 0 00-.5.5v27a.5.5 0 00.5.5h27a.5.5 0 00.5-.5v-27a.5.5 0 00-.5-.5h-27z"/></svg>