<svg xmlns="http://www.w3.org/2000/svg" viewBox="0 0 40 40"><path fill="#FFB900" d="M19 11l-2.121-2.121A3 3 0 0014.757 8H6a2 2 0 00-2 2v20a2 2 0 002 2h28a2 2 0 002-2V13a2 2 0 00-2-2H19z"/><path fill="#FFD75E" d="M19 11l-2.121 2.121a3 3 0 01-2.122.879H4v16a2 2 0 002 2h28a2 2 0 002-2V13a2 2 0 00-2-2H19z"/><linearGradient id="a" gradientUnits="userSpaceOnUse" x1="20" y1="11" x2="20" y2="32"><stop offset="0" stop-color="#fff" stop-opacity="0"/><stop offset=".999" stop-color="#ffd75e" stop-opacity=".3"/></linearGradient><path fill="url(#a)" d="M19 11l-2.121 2.121a3 3 0 01-2.122.879H4v16a2 2 0 002 2h28a2 2 0 002-2V13a2 2 0 00-2-2H19z"/><path opacity=".4" fill="#FFF" d="M16.879 13.121a3 3 0 01-2.122.879H4v1h11.05a3.5 3.5 0 002.475-1.025L20.5 11H19l-2.121 2.121z"/><path fill="#E67628" d="M6 32h28a2 2 0 001.918-1.43c-.35.277-.784.43-1.233.43H5.315a1.98 1.98 0 01-1.233-.43A2 2 0 006 32z"/><path fill="#BF5712" d="M17.538 21H6.462c-.255 0-.462.187-.462.417v.416h1.75c.138 0 .25.094.25.209v2.916c0 .115-.112.209-.25.209H6v.416c0 .23.207.417.462.417h11.076c.255 0 .462-.186.462-.417v-4.166c0-.23-.207-.417-.462-.417zM16 24.958c0 .115-.112.209-.25.209h-2.5c-.138 0-.25-.094-.25-.209v-2.916c0-.115.112-.209.25-.209h2.5c.138 0 .25.094.25.209v2.916zm-12 .209h1.75a.25.25 0 00.25-.25v-2.834a.25.25 0 00-.25-.25H4v3.334zm16.5 0c-.276 0-.5-.187-.5-.417v-2.5c0-.23.224-.417.5-.417s.5.187.5.417v2.5c0 .23-.224.417-.5.417zm3 0c-.276 0-.5-.187-.5-.417v-2.5c0-.23.224-.417.5-.417s.5.187.5.417v2.5c0 .23-.224.417-.5.417zm3 0c-.276 0-.5-.187-.5-.417v-2.5c0-.23.224-.417.5-.417s.5.187.5.417v2.5c0 .23-.224.417-.5.417zm3 0c-.276 0-.5-.187-.5-.417v-2.5c0-.23.224-.417.5-.417s.5.187.5.417v2.5c0 .23-.224.417-.5.417zm3 0c-.276 0-.5-.187-.5-.417v-2.5c0-.23.224-.417.5-.417s.5.187.5.417v2.5c0 .23-.224.417-.5.417zm3 0c-.276 0-.5-.187-.5-.417v-2.5c0-.23.224-.417.5-.417s.5.187.5.417v2.5c0 .23-.224.417-.5.417z"/></svg>